%TF.GenerationSoftware,KiCad,Pcbnew,7.0.8*%
%TF.CreationDate,2023-11-30T10:47:26+09:00*%
%TF.ProjectId,AutoKey,4175746f-4b65-4792-9e6b-696361645f70,rev?*%
%TF.SameCoordinates,PX5f5e100PY44aa200*%
%TF.FileFunction,Copper,L1,Top*%
%TF.FilePolarity,Positive*%
%FSLAX46Y46*%
G04 Gerber Fmt 4.6, Leading zero omitted, Abs format (unit mm)*
G04 Created by KiCad (PCBNEW 7.0.8) date 2023-11-30 10:47:26*
%MOMM*%
%LPD*%
G01*
G04 APERTURE LIST*
G04 Aperture macros list*
%AMRoundRect*
0 Rectangle with rounded corners*
0 $1 Rounding radius*
0 $2 $3 $4 $5 $6 $7 $8 $9 X,Y pos of 4 corners*
0 Add a 4 corners polygon primitive as box body*
4,1,4,$2,$3,$4,$5,$6,$7,$8,$9,$2,$3,0*
0 Add four circle primitives for the rounded corners*
1,1,$1+$1,$2,$3*
1,1,$1+$1,$4,$5*
1,1,$1+$1,$6,$7*
1,1,$1+$1,$8,$9*
0 Add four rect primitives between the rounded corners*
20,1,$1+$1,$2,$3,$4,$5,0*
20,1,$1+$1,$4,$5,$6,$7,0*
20,1,$1+$1,$6,$7,$8,$9,0*
20,1,$1+$1,$8,$9,$2,$3,0*%
G04 Aperture macros list end*
%TA.AperFunction,NonConductor*%
%ADD10C,2.825620*%
%TD*%
%TA.AperFunction,NonConductor*%
%ADD11C,3.100000*%
%TD*%
%TA.AperFunction,NonConductor*%
%ADD12C,0.200000*%
%TD*%
%TA.AperFunction,SMDPad,CuDef*%
%ADD13RoundRect,0.237500X0.250000X0.237500X-0.250000X0.237500X-0.250000X-0.237500X0.250000X-0.237500X0*%
%TD*%
%TA.AperFunction,SMDPad,CuDef*%
%ADD14RoundRect,0.237500X-0.250000X-0.237500X0.250000X-0.237500X0.250000X0.237500X-0.250000X0.237500X0*%
%TD*%
%TA.AperFunction,SMDPad,CuDef*%
%ADD15RoundRect,0.250000X-0.375000X-0.275000X0.375000X-0.275000X0.375000X0.275000X-0.375000X0.275000X0*%
%TD*%
%TA.AperFunction,SMDPad,CuDef*%
%ADD16RoundRect,0.250000X-0.275000X0.375000X-0.275000X-0.375000X0.275000X-0.375000X0.275000X0.375000X0*%
%TD*%
%TA.AperFunction,SMDPad,CuDef*%
%ADD17RoundRect,0.250000X0.275000X-0.375000X0.275000X0.375000X-0.275000X0.375000X-0.275000X-0.375000X0*%
%TD*%
%TA.AperFunction,SMDPad,CuDef*%
%ADD18RoundRect,0.150000X-0.825000X-0.150000X0.825000X-0.150000X0.825000X0.150000X-0.825000X0.150000X0*%
%TD*%
%TA.AperFunction,SMDPad,CuDef*%
%ADD19C,0.500000*%
%TD*%
%TA.AperFunction,SMDPad,CuDef*%
%ADD20R,2.300000X2.300000*%
%TD*%
%TA.AperFunction,SMDPad,CuDef*%
%ADD21RoundRect,0.250000X0.375000X0.275000X-0.375000X0.275000X-0.375000X-0.275000X0.375000X-0.275000X0*%
%TD*%
%TA.AperFunction,SMDPad,CuDef*%
%ADD22RoundRect,0.237500X0.237500X-0.250000X0.237500X0.250000X-0.237500X0.250000X-0.237500X-0.250000X0*%
%TD*%
%TA.AperFunction,ComponentPad*%
%ADD23RoundRect,0.250000X0.750000X-0.600000X0.750000X0.600000X-0.750000X0.600000X-0.750000X-0.600000X0*%
%TD*%
%TA.AperFunction,ComponentPad*%
%ADD24O,2.000000X1.700000*%
%TD*%
%TA.AperFunction,ComponentPad*%
%ADD25C,1.700000*%
%TD*%
%TA.AperFunction,ComponentPad*%
%ADD26R,1.600000X1.600000*%
%TD*%
%TA.AperFunction,ComponentPad*%
%ADD27C,1.600000*%
%TD*%
%TA.AperFunction,ComponentPad*%
%ADD28RoundRect,0.250000X0.600000X0.750000X-0.600000X0.750000X-0.600000X-0.750000X0.600000X-0.750000X0*%
%TD*%
%TA.AperFunction,ComponentPad*%
%ADD29O,1.700000X2.000000*%
%TD*%
%TA.AperFunction,ComponentPad*%
%ADD30R,1.500000X1.050000*%
%TD*%
%TA.AperFunction,ComponentPad*%
%ADD31O,1.500000X1.050000*%
%TD*%
%TA.AperFunction,ComponentPad*%
%ADD32RoundRect,0.250000X-0.725000X0.600000X-0.725000X-0.600000X0.725000X-0.600000X0.725000X0.600000X0*%
%TD*%
%TA.AperFunction,ComponentPad*%
%ADD33O,1.950000X1.700000*%
%TD*%
%TA.AperFunction,Conductor*%
%ADD34C,0.250000*%
%TD*%
%TA.AperFunction,Conductor*%
%ADD35C,1.000000*%
%TD*%
%TA.AperFunction,Conductor*%
%ADD36C,0.500000*%
%TD*%
G04 APERTURE END LIST*
D10*
X10912810Y30000000D02*
G75*
G03*
X10912810Y30000000I-1412810J0D01*
G01*
D11*
X35050000Y12000000D02*
G75*
G03*
X35050000Y12000000I-1550000J0D01*
G01*
D12*
X12300000Y30000000D02*
G75*
G03*
X12300000Y30000000I-2800000J0D01*
G01*
D11*
X35050000Y30000000D02*
G75*
G03*
X35050000Y30000000I-1550000J0D01*
G01*
X11050000Y12000000D02*
G75*
G03*
X11050000Y12000000I-1550000J0D01*
G01*
D13*
%TO.P,R4,1*%
%TO.N,SW1*%
X26642500Y33900000D03*
%TO.P,R4,2*%
%TO.N,GND*%
X24817500Y33900000D03*
%TD*%
D14*
%TO.P,R1,1*%
%TO.N,GND*%
X24817500Y23740000D03*
%TO.P,R1,2*%
%TO.N,Pos_SW1*%
X26642500Y23740000D03*
%TD*%
D15*
%TO.P,C4,1*%
%TO.N,GND*%
X21590000Y9135000D03*
%TO.P,C4,2*%
%TO.N,+6V*%
X23190000Y9135000D03*
%TD*%
D16*
%TO.P,C1,1*%
%TO.N,GND*%
X15570000Y36440000D03*
%TO.P,C1,2*%
%TO.N,+3.3V*%
X15570000Y34840000D03*
%TD*%
D14*
%TO.P,R3,1*%
%TO.N,GND*%
X24817500Y30090000D03*
%TO.P,R3,2*%
%TO.N,SW2*%
X26642500Y30090000D03*
%TD*%
D17*
%TO.P,C3,1*%
%TO.N,GND*%
X8585000Y4525000D03*
%TO.P,C3,2*%
%TO.N,+3.3V*%
X8585000Y6125000D03*
%TD*%
D18*
%TO.P,U2,1,GND*%
%TO.N,GND*%
X16210000Y14850000D03*
%TO.P,U2,2,IN2*%
%TO.N,IN2*%
X16210000Y13580000D03*
%TO.P,U2,3,IN1*%
%TO.N,IN1*%
X16210000Y12310000D03*
%TO.P,U2,4,VREF*%
%TO.N,+3.3V*%
X16210000Y11040000D03*
%TO.P,U2,5,VM*%
%TO.N,+6V*%
X21160000Y11040000D03*
%TO.P,U2,6,OUT1*%
%TO.N,OUT1*%
X21160000Y12310000D03*
%TO.P,U2,7,RS*%
%TO.N,GND*%
X21160000Y13580000D03*
%TO.P,U2,8,OUT2*%
%TO.N,OUT2*%
X21160000Y14850000D03*
D19*
%TO.P,U2,9,PAD*%
%TO.N,GND*%
X17785000Y13845000D03*
X17785000Y12045000D03*
D20*
X18685000Y12945000D03*
X18685000Y12945000D03*
D19*
X19585000Y13845000D03*
X19585000Y12045000D03*
%TD*%
D21*
%TO.P,C5,1*%
%TO.N,GND*%
X31140000Y7230000D03*
%TO.P,C5,2*%
%TO.N,+3.3V*%
X29540000Y7230000D03*
%TD*%
D22*
%TO.P,R2,1*%
%TO.N,GND*%
X15570000Y26637500D03*
%TO.P,R2,2*%
%TO.N,Pos_SW2*%
X15570000Y28462500D03*
%TD*%
D23*
%TO.P,ToMotor1,1,Pin_1*%
%TO.N,OUT2*%
X8860000Y18680000D03*
D24*
%TO.P,ToMotor1,2,Pin_2*%
%TO.N,OUT1*%
X8860000Y21180000D03*
%TD*%
D25*
%TO.P,U1,1,PA02_A0_D0*%
%TO.N,unconnected-(U1-PA02_A0_D0-Pad1)*%
X29445250Y38980000D03*
%TO.P,U1,2,PA4_A1_D1*%
%TO.N,unconnected-(U1-PA4_A1_D1-Pad2)*%
X29445250Y36440000D03*
%TO.P,U1,3,PA10_A2_D2*%
%TO.N,SW1*%
X29445250Y33900000D03*
%TO.P,U1,4,PA11_A3_D3*%
%TO.N,SW2*%
X29445250Y31360000D03*
%TO.P,U1,5,PA8_A4_D4_SDA*%
%TO.N,SDA*%
X29445250Y28820000D03*
%TO.P,U1,6,PA9_A5_D5_SCL*%
%TO.N,SCL*%
X29445250Y26280000D03*
%TO.P,U1,7,PB08_A6_D6_TX*%
%TO.N,Pos_SW1*%
X29445250Y23740000D03*
%TO.P,U1,8,PB09_A7_D7_RX*%
%TO.N,IN2*%
X13280250Y23740000D03*
%TO.P,U1,9,PA7_A8_D8_SCK*%
%TO.N,IN1*%
X13280250Y26280000D03*
%TO.P,U1,10,PA5_A9_D9_MISO*%
%TO.N,Pos_SW2*%
X13280250Y28820000D03*
%TO.P,U1,11,PA6_A10_D10_MOSI*%
%TO.N,unconnected-(U1-PA6_A10_D10_MOSI-Pad11)*%
X13280250Y31360000D03*
%TO.P,U1,12,3V3*%
%TO.N,+3.3V*%
X13280250Y33900000D03*
%TO.P,U1,13,GND*%
%TO.N,GND*%
X13280250Y36440000D03*
%TO.P,U1,14,5V*%
%TO.N,unconnected-(U1-5V-Pad14)*%
X13280250Y38980000D03*
%TD*%
D26*
%TO.P,C2,1*%
%TO.N,+6V*%
X15570000Y4690000D03*
D27*
%TO.P,C2,2*%
%TO.N,GND*%
X13070000Y4690000D03*
%TD*%
D28*
%TO.P,ToPower1,1,Pin_1*%
%TO.N,+6V*%
X40950000Y9770000D03*
D29*
%TO.P,ToPower1,2,Pin_2*%
%TO.N,GND*%
X38450000Y9770000D03*
%TD*%
D23*
%TO.P,ToMotorSensor1,1,Pin_1*%
%TO.N,Pos_SW2*%
X8860000Y35190000D03*
D24*
%TO.P,ToMotorSensor1,2,Pin_2*%
%TO.N,+3.3V*%
X8860000Y37690000D03*
%TD*%
D30*
%TO.P,U3,1,VOUT*%
%TO.N,+3.3V*%
X20650000Y5960000D03*
D31*
%TO.P,U3,2,GND*%
%TO.N,GND*%
X20650000Y4690000D03*
%TO.P,U3,3,VIN*%
%TO.N,+6V*%
X20650000Y3420000D03*
%TD*%
D32*
%TO.P,ToOutSidePCB1,1,Pin_1*%
%TO.N,SDA*%
X37520000Y27450000D03*
D33*
%TO.P,ToOutSidePCB1,2,Pin_2*%
%TO.N,SCL*%
X37520000Y24950000D03*
%TO.P,ToOutSidePCB1,3,Pin_3*%
%TO.N,+3.3V*%
X37520000Y22450000D03*
%TO.P,ToOutSidePCB1,4,Pin_4*%
%TO.N,SW2*%
X37520000Y19950000D03*
%TO.P,ToOutSidePCB1,5,Pin_5*%
%TO.N,SW1*%
X37520000Y17450000D03*
%TO.P,ToOutSidePCB1,6,Pin_6*%
%TO.N,GND*%
X37520000Y14950000D03*
%TD*%
D28*
%TO.P,ToKeySensor1,1,Pin_1*%
%TO.N,+3.3V*%
X29500000Y9770000D03*
D29*
%TO.P,ToKeySensor1,2,Pin_2*%
%TO.N,Pos_SW1*%
X27000000Y9770000D03*
%TD*%
D34*
%TO.N,OUT2*%
X21920000Y14850000D02*
X21160000Y14850000D01*
X22936000Y15866000D02*
X21920000Y14850000D01*
X21392000Y18680000D02*
X22936000Y17136000D01*
X22936000Y17136000D02*
X22936000Y15866000D01*
X8860000Y18680000D02*
X21392000Y18680000D01*
D35*
%TO.N,GND*%
X16210000Y14850000D02*
X18110000Y14850000D01*
X20015000Y9135000D02*
X21590000Y9135000D01*
D34*
X19320000Y13580000D02*
X18685000Y12945000D01*
D35*
X18685000Y10465000D02*
X20015000Y9135000D01*
X18685000Y14275000D02*
X18685000Y12945000D01*
X18685000Y12945000D02*
X18685000Y10465000D01*
D34*
X21160000Y13580000D02*
X19320000Y13580000D01*
D36*
X15570000Y36440000D02*
X13280250Y36440000D01*
D35*
X18110000Y14850000D02*
X18685000Y14275000D01*
%TO.N,+6V*%
X22390000Y7700000D02*
X23190000Y8500000D01*
X35890000Y3420000D02*
X20650000Y3420000D01*
X40950000Y9770000D02*
X40950000Y8480000D01*
X22810000Y11040000D02*
X21160000Y11040000D01*
X16840000Y7700000D02*
X22390000Y7700000D01*
X15570000Y4690000D02*
X15570000Y6430000D01*
X20650000Y3420000D02*
X16840000Y3420000D01*
X23190000Y8500000D02*
X23190000Y10660000D01*
X23190000Y10660000D02*
X22810000Y11040000D01*
X15570000Y6430000D02*
X16840000Y7700000D01*
X16840000Y3420000D02*
X15570000Y4690000D01*
X40950000Y8480000D02*
X35890000Y3420000D01*
D34*
X21160000Y11040000D02*
X21920000Y11040000D01*
D36*
%TO.N,+3.3V*%
X25095000Y19295000D02*
X25095000Y7230000D01*
X21285000Y6595000D02*
X20650000Y5960000D01*
X24460000Y6595000D02*
X21285000Y6595000D01*
X7295000Y37690000D02*
X2870000Y33265000D01*
X4775000Y6595000D02*
X11125000Y6595000D01*
X2870000Y8500000D02*
X4775000Y6595000D01*
X31445000Y19930000D02*
X33965000Y22450000D01*
D34*
X13030000Y33900000D02*
X13280250Y33900000D01*
D36*
X18110000Y33900000D02*
X18110000Y26280000D01*
X29500000Y7270000D02*
X29500000Y9770000D01*
X17170000Y34840000D02*
X18110000Y33900000D01*
X25095000Y7230000D02*
X24460000Y6595000D01*
D34*
X29540000Y7230000D02*
X29500000Y7270000D01*
D36*
X29540000Y9810000D02*
X29540000Y14850000D01*
X8860000Y37690000D02*
X7295000Y37690000D01*
X11125000Y6595000D02*
X15570000Y11040000D01*
X25095000Y7230000D02*
X25730000Y6595000D01*
X2870000Y33265000D02*
X2870000Y8500000D01*
X29540000Y14850000D02*
X31445000Y16755000D01*
D34*
X8860000Y37690000D02*
X9240000Y37690000D01*
D36*
X18110000Y26280000D02*
X25095000Y19295000D01*
X14220250Y34840000D02*
X15570000Y34840000D01*
X15570000Y34840000D02*
X17170000Y34840000D01*
X13280250Y33900000D02*
X14220250Y34840000D01*
D34*
X15570000Y11040000D02*
X16210000Y11040000D01*
D36*
X9240000Y37690000D02*
X13030000Y33900000D01*
D34*
X16210000Y11100000D02*
X15833248Y11100000D01*
D36*
X25730000Y6595000D02*
X28905000Y6595000D01*
X28905000Y6595000D02*
X29540000Y7230000D01*
X31445000Y16755000D02*
X31445000Y19930000D01*
X29500000Y9770000D02*
X29540000Y9810000D01*
X33965000Y22450000D02*
X37520000Y22450000D01*
D34*
%TO.N,Pos_SW1*%
X29445250Y17295250D02*
X29445250Y23740000D01*
X27000000Y14850000D02*
X29445250Y17295250D01*
X27000000Y9770000D02*
X27000000Y14850000D01*
X29445250Y23740000D02*
X26642500Y23740000D01*
%TO.N,Pos_SW2*%
X15212500Y28820000D02*
X15570000Y28462500D01*
X10740250Y26280000D02*
X13280250Y28820000D01*
X8860000Y35190000D02*
X7335000Y35190000D01*
X5410000Y26280000D02*
X10740250Y26280000D01*
X13280250Y28820000D02*
X15212500Y28820000D01*
X4140000Y31995000D02*
X4140000Y27550000D01*
X7335000Y35190000D02*
X4140000Y31995000D01*
X4140000Y27550000D02*
X5410000Y26280000D01*
%TO.N,SW1*%
X40970000Y32630000D02*
X37160000Y36440000D01*
X37160000Y36440000D02*
X31985250Y36440000D01*
X37520000Y17450000D02*
X40970000Y20900000D01*
X29445250Y33900000D02*
X26642500Y33900000D01*
X40970000Y20900000D02*
X40970000Y32630000D01*
X31985250Y36440000D02*
X29445250Y33900000D01*
%TO.N,SW2*%
X29445250Y31900250D02*
X32715000Y35170000D01*
X39700000Y31995000D02*
X39700000Y22130000D01*
X36525000Y35170000D02*
X39700000Y31995000D01*
X32715000Y35170000D02*
X36525000Y35170000D01*
X39700000Y22130000D02*
X37520000Y19950000D01*
X29445250Y31360000D02*
X27912500Y31360000D01*
X27912500Y31360000D02*
X26642500Y30090000D01*
X29445250Y31360000D02*
X29445250Y31900250D01*
%TO.N,OUT1*%
X8860000Y21180000D02*
X20670000Y21180000D01*
X21920000Y12430000D02*
X21220000Y12430000D01*
X20670000Y21180000D02*
X23950000Y17900000D01*
X23190000Y12310000D02*
X21160000Y12310000D01*
X23950000Y13070000D02*
X23190000Y12310000D01*
X23950000Y17900000D02*
X23950000Y13070000D01*
X21220000Y12430000D02*
X21160000Y12370000D01*
%TO.N,SCL*%
X30775250Y24950000D02*
X29445250Y26280000D01*
X37520000Y24950000D02*
X30775250Y24950000D01*
%TO.N,SDA*%
X37520000Y27450000D02*
X36350000Y26280000D01*
X31985250Y26280000D02*
X29445250Y28820000D01*
X36350000Y26280000D02*
X31985250Y26280000D01*
%TO.N,IN1*%
X12010250Y25010000D02*
X13280250Y26280000D01*
X15570000Y12310000D02*
X11125000Y7865000D01*
X4140000Y23740000D02*
X5410000Y25010000D01*
X5410000Y25010000D02*
X12010250Y25010000D01*
X4140000Y9135000D02*
X4140000Y23740000D01*
X5410000Y7865000D02*
X4140000Y9135000D01*
X11125000Y7865000D02*
X5410000Y7865000D01*
X16210000Y12310000D02*
X15570000Y12310000D01*
%TO.N,IN2*%
X14300000Y13580000D02*
X16210000Y13580000D01*
X6045000Y23740000D02*
X5410000Y23105000D01*
X13030000Y23740000D02*
X6045000Y23740000D01*
X11760000Y16120000D02*
X14300000Y13580000D01*
X5410000Y16755000D02*
X6045000Y16120000D01*
X6045000Y16120000D02*
X11760000Y16120000D01*
X5410000Y23105000D02*
X5410000Y16755000D01*
%TD*%
%TA.AperFunction,Conductor*%
%TO.N,GND*%
G36*
X20883393Y6970504D02*
G01*
X20912389Y6900500D01*
X20883393Y6830497D01*
X20767394Y6714497D01*
X20697390Y6685500D01*
X19880252Y6685500D01*
X19880251Y6685500D01*
X19880241Y6685499D01*
X19821772Y6673868D01*
X19821766Y6673866D01*
X19755451Y6629555D01*
X19755445Y6629549D01*
X19711134Y6563234D01*
X19711132Y6563228D01*
X19699501Y6504759D01*
X19699500Y6504747D01*
X19699500Y5479196D01*
X19682816Y5424195D01*
X19459472Y5089938D01*
X19459471Y5089936D01*
X19429646Y4940000D01*
X20320596Y4940000D01*
X20217043Y4690000D01*
X20320596Y4440000D01*
X19429647Y4440000D01*
X19459471Y4290065D01*
X19469870Y4274503D01*
X19484653Y4200188D01*
X19442558Y4137185D01*
X19387555Y4120500D01*
X17171165Y4120500D01*
X17101161Y4149496D01*
X16599496Y4651161D01*
X16570500Y4721165D01*
X16570500Y5509747D01*
X16570498Y5509759D01*
X16562243Y5551259D01*
X16558867Y5568231D01*
X16514552Y5634552D01*
X16514548Y5634555D01*
X16448233Y5678866D01*
X16448231Y5678867D01*
X16448228Y5678868D01*
X16448227Y5678868D01*
X16389758Y5690499D01*
X16389748Y5690500D01*
X16389747Y5690500D01*
X16369500Y5690500D01*
X16299496Y5719496D01*
X16270500Y5789500D01*
X16270500Y6098835D01*
X16299496Y6168839D01*
X17101161Y6970504D01*
X17171165Y6999500D01*
X20813389Y6999500D01*
X20883393Y6970504D01*
G37*
%TD.AperFunction*%
%TA.AperFunction,Conductor*%
G36*
X14395159Y35678645D02*
G01*
X14440832Y35747000D01*
X14503833Y35789097D01*
X14578149Y35774315D01*
X14605464Y35747000D01*
X14754279Y35524282D01*
X14754284Y35524277D01*
X14825424Y35476744D01*
X14867521Y35413743D01*
X14867523Y35375119D01*
X14866543Y35370191D01*
X14824449Y35307187D01*
X14769444Y35290500D01*
X14329553Y35290500D01*
X14291667Y35298036D01*
X14258230Y35311886D01*
X14220250Y35327618D01*
X14220249Y35327618D01*
X14153256Y35299869D01*
X14077485Y35299869D01*
X14045367Y35321329D01*
X13412933Y35953764D01*
X13662933Y36057317D01*
X13766486Y36307318D01*
X14395159Y35678645D01*
G37*
%TD.AperFunction*%
%TA.AperFunction,Conductor*%
G36*
X38002760Y41699189D02*
G01*
X39257179Y41557851D01*
X39278787Y41552918D01*
X40462389Y41138757D01*
X40482362Y41129139D01*
X41544133Y40461985D01*
X41561466Y40448163D01*
X42448162Y39561467D01*
X42461984Y39544134D01*
X43129138Y38482363D01*
X43138756Y38462390D01*
X43552916Y37278791D01*
X43557850Y37257178D01*
X43619514Y36709896D01*
X43698115Y36012288D01*
X43699189Y36002761D01*
X43699500Y35997215D01*
X43699500Y2009753D01*
X43697598Y1990439D01*
X43573974Y1368944D01*
X43559192Y1333257D01*
X43212668Y814647D01*
X43185353Y787332D01*
X42666743Y440808D01*
X42631056Y426026D01*
X42009562Y302402D01*
X41990248Y300500D01*
X2009752Y300500D01*
X1990438Y302402D01*
X1368943Y426026D01*
X1333256Y440808D01*
X814646Y787332D01*
X787331Y814647D01*
X440807Y1333257D01*
X426025Y1368944D01*
X372976Y1635637D01*
X302402Y1990439D01*
X300500Y2009753D01*
X300500Y4076132D01*
X7560000Y4076132D01*
X7603516Y3857365D01*
X7603517Y3857363D01*
X7769279Y3609282D01*
X7769281Y3609280D01*
X8017362Y3443518D01*
X8017364Y3443517D01*
X8236131Y3400001D01*
X8236135Y3400000D01*
X8334999Y3400000D01*
X8335000Y3400001D01*
X8835000Y3400001D01*
X8835001Y3400000D01*
X8933865Y3400000D01*
X8933868Y3400001D01*
X9152635Y3443517D01*
X9152637Y3443518D01*
X9400718Y3609280D01*
X9400720Y3609282D01*
X9566482Y3857363D01*
X9566483Y3857365D01*
X9609999Y4076132D01*
X9610000Y4076136D01*
X9610000Y4274999D01*
X9609999Y4275000D01*
X8835001Y4275000D01*
X8835000Y4274999D01*
X8835000Y3400001D01*
X8335000Y3400001D01*
X8335000Y4274999D01*
X8334999Y4275000D01*
X7560001Y4275000D01*
X7560000Y4274999D01*
X7560000Y4076132D01*
X300500Y4076132D01*
X300500Y8500000D01*
X2382382Y8500000D01*
X2419500Y8410390D01*
X2419500Y8410389D01*
X2525202Y8155202D01*
X2594705Y8126413D01*
X2596617Y8125621D01*
X2628736Y8104161D01*
X4379159Y6353738D01*
X4400619Y6321620D01*
X4405907Y6308855D01*
X4430202Y6250202D01*
X4626630Y6168839D01*
X4685389Y6144500D01*
X4774999Y6107382D01*
X4774999Y6107383D01*
X4775000Y6107382D01*
X4846417Y6136965D01*
X4884303Y6144500D01*
X7760500Y6144500D01*
X7830504Y6115504D01*
X7859500Y6045500D01*
X7859500Y5705633D01*
X7859501Y5705626D01*
X7882522Y5589887D01*
X7867739Y5515572D01*
X7840426Y5488259D01*
X7769283Y5440723D01*
X7769279Y5440719D01*
X7603517Y5192638D01*
X7603516Y5192636D01*
X7560000Y4973869D01*
X7560000Y4775001D01*
X7560001Y4775000D01*
X9609999Y4775000D01*
X9610000Y4775001D01*
X9610000Y4973865D01*
X9609999Y4973869D01*
X9566483Y5192636D01*
X9566482Y5192638D01*
X9400718Y5440722D01*
X9329574Y5488258D01*
X9287477Y5551259D01*
X9287477Y5589885D01*
X9310500Y5705629D01*
X9310499Y6045501D01*
X9339495Y6115503D01*
X9409499Y6144500D01*
X11015697Y6144500D01*
X11053582Y6136965D01*
X11125000Y6107382D01*
X11380187Y6213084D01*
X11380186Y6213084D01*
X11469798Y6250202D01*
X11499380Y6321621D01*
X11520836Y6353735D01*
X15677607Y10510505D01*
X15747611Y10539501D01*
X17069520Y10539501D01*
X17069522Y10539501D01*
X17171758Y10559836D01*
X17287697Y10637303D01*
X17365164Y10753242D01*
X17385500Y10855477D01*
X17385499Y11196001D01*
X17414495Y11266003D01*
X17484499Y11295000D01*
X17701382Y11295000D01*
X17720696Y11293098D01*
X17785000Y11280308D01*
X17849304Y11293098D01*
X17868618Y11295000D01*
X18434999Y11295000D01*
X18435000Y11295001D01*
X18435000Y12694999D01*
X18434999Y12695000D01*
X17344214Y12695000D01*
X17289213Y12711684D01*
X17171760Y12790163D01*
X17171759Y12790164D01*
X17171758Y12790164D01*
X17069523Y12810500D01*
X17069522Y12810500D01*
X15350480Y12810500D01*
X15350473Y12810499D01*
X15248242Y12790165D01*
X15248241Y12790164D01*
X15132304Y12712699D01*
X15132301Y12712696D01*
X15054837Y12596761D01*
X15054837Y12596760D01*
X15054836Y12596758D01*
X15039549Y12519910D01*
X15034500Y12494524D01*
X15034500Y12275835D01*
X15005504Y12205831D01*
X11019170Y8219496D01*
X10949166Y8190500D01*
X5585834Y8190500D01*
X5515830Y8219496D01*
X4494496Y9240830D01*
X4465500Y9310834D01*
X4465500Y12000000D01*
X6148584Y12000000D01*
X6350698Y10853750D01*
X6350698Y10853749D01*
X6350699Y10853748D01*
X6932665Y9845752D01*
X6932667Y9845750D01*
X7803121Y9115353D01*
X7824292Y9097589D01*
X8918033Y8699500D01*
X8918034Y8699500D01*
X10081966Y8699500D01*
X10081967Y8699500D01*
X11175708Y9097589D01*
X12067334Y9845751D01*
X12649301Y10853748D01*
X12851416Y12000000D01*
X12649301Y13146252D01*
X12067334Y14154249D01*
X12014449Y14198625D01*
X11175711Y14902409D01*
X11175709Y14902410D01*
X11175708Y14902411D01*
X10081967Y15300500D01*
X8918033Y15300500D01*
X7824292Y14902411D01*
X7824291Y14902411D01*
X7824290Y14902410D01*
X7824288Y14902409D01*
X6932667Y14154251D01*
X6350698Y13146251D01*
X6148584Y12000000D01*
X4465500Y12000000D01*
X4465500Y16755000D01*
X5057681Y16755000D01*
X5084500Y16690254D01*
X5084500Y16690253D01*
X5160873Y16505873D01*
X5206765Y16486864D01*
X5207424Y16486591D01*
X5239543Y16465131D01*
X5755130Y15949543D01*
X5776589Y15917427D01*
X5795873Y15870873D01*
X5851606Y15847788D01*
X5851618Y15847781D01*
X6044999Y15767681D01*
X6045000Y15767681D01*
X6091553Y15786965D01*
X6129439Y15794500D01*
X11584166Y15794500D01*
X11654169Y15765505D01*
X12833222Y14586451D01*
X14010130Y13409543D01*
X14031589Y13377427D01*
X14050873Y13330873D01*
X14106611Y13307786D01*
X14106614Y13307784D01*
X14115618Y13304055D01*
X14115619Y13304054D01*
X14141722Y13293242D01*
X14235253Y13254500D01*
X14235255Y13254500D01*
X14300000Y13227682D01*
X14346552Y13246965D01*
X14384436Y13254500D01*
X15027805Y13254500D01*
X15097809Y13225504D01*
X15110120Y13210502D01*
X15132303Y13177303D01*
X15248242Y13099836D01*
X15350477Y13079500D01*
X17069522Y13079501D01*
X17171758Y13099836D01*
X17287697Y13177303D01*
X17287697Y13177304D01*
X17289213Y13178316D01*
X17344214Y13195000D01*
X18434999Y13195000D01*
X18435000Y13195001D01*
X18435000Y14594999D01*
X18434999Y14595000D01*
X17868618Y14595000D01*
X17849304Y14596902D01*
X17784999Y14609693D01*
X17744241Y14601586D01*
X17724669Y14605480D01*
X17724669Y14600000D01*
X14742157Y14600000D01*
X14772715Y14446382D01*
X14772715Y14446381D01*
X14916375Y14231378D01*
X14916377Y14231376D01*
X15098214Y14109877D01*
X15140311Y14046875D01*
X15125530Y13972562D01*
X15110122Y13949501D01*
X15047121Y13907403D01*
X15027805Y13905500D01*
X14475835Y13905500D01*
X14405831Y13934496D01*
X13240327Y15100000D01*
X14742157Y15100000D01*
X15959999Y15100000D01*
X15960000Y15100001D01*
X16460000Y15100001D01*
X16460001Y15100000D01*
X17677842Y15100000D01*
X17647284Y15253619D01*
X17647284Y15253620D01*
X17503624Y15468623D01*
X17503622Y15468625D01*
X17288619Y15612285D01*
X17099018Y15650000D01*
X16460001Y15650000D01*
X16460000Y15649999D01*
X16460000Y15100001D01*
X15960000Y15100001D01*
X15960000Y15649999D01*
X15959999Y15650000D01*
X15320981Y15650000D01*
X15131381Y15612285D01*
X15131380Y15612285D01*
X14916377Y15468625D01*
X14916375Y15468623D01*
X14772715Y15253620D01*
X14772715Y15253619D01*
X14742157Y15100000D01*
X13240327Y15100000D01*
X12049869Y16290457D01*
X12028409Y16322576D01*
X12009127Y16369126D01*
X12009127Y16369127D01*
X11935800Y16399500D01*
X11824747Y16445500D01*
X11760000Y16472319D01*
X11731351Y16460452D01*
X11713447Y16453036D01*
X11675561Y16445500D01*
X6220835Y16445500D01*
X6150831Y16474496D01*
X5764496Y16860831D01*
X5735500Y16930835D01*
X5735500Y22929167D01*
X5764495Y22999170D01*
X6150831Y23385504D01*
X6220834Y23414500D01*
X12192667Y23414500D01*
X12262671Y23385504D01*
X12289765Y23334815D01*
X12290700Y23330114D01*
X12290700Y23330112D01*
X12522877Y22982636D01*
X12522878Y22982635D01*
X12522881Y22982631D01*
X12522884Y22982629D01*
X12522885Y22982628D01*
X12870361Y22750451D01*
X12870364Y22750450D01*
X12938368Y22736924D01*
X13280250Y22668919D01*
X13690135Y22750450D01*
X13690138Y22750451D01*
X13980549Y22944498D01*
X14037619Y22982631D01*
X14109304Y23089915D01*
X14269799Y23330112D01*
X14269800Y23330115D01*
X14270735Y23334818D01*
X14351331Y23740000D01*
X14271528Y24141200D01*
X14269800Y24149886D01*
X14269799Y24149889D01*
X14037622Y24497365D01*
X14037621Y24497366D01*
X14037619Y24497369D01*
X14037615Y24497372D01*
X14037614Y24497373D01*
X13690138Y24729550D01*
X13690135Y24729551D01*
X13280250Y24811081D01*
X12870364Y24729551D01*
X12870361Y24729550D01*
X12522885Y24497373D01*
X12522877Y24497365D01*
X12290700Y24149889D01*
X12290700Y24149887D01*
X12289765Y24145185D01*
X12287102Y24141200D01*
X12286968Y24140876D01*
X12286903Y24140903D01*
X12247668Y24082184D01*
X12192667Y24065500D01*
X6129439Y24065500D01*
X6091553Y24073036D01*
X6063321Y24084730D01*
X6045000Y24092319D01*
X6044999Y24092319D01*
X5860617Y24015946D01*
X5795874Y23989128D01*
X5795871Y23989125D01*
X5776589Y23942575D01*
X5755130Y23910459D01*
X5239543Y23394871D01*
X5207426Y23373412D01*
X5160874Y23354129D01*
X5160873Y23354129D01*
X5103137Y23214740D01*
X5091531Y23186720D01*
X5057681Y23105000D01*
X5076964Y23058446D01*
X5084500Y23020562D01*
X5084500Y16839440D01*
X5076964Y16801555D01*
X5057681Y16755001D01*
X5057681Y16755000D01*
X4465500Y16755000D01*
X4465500Y23564166D01*
X4494496Y23634170D01*
X5515830Y24655504D01*
X5585834Y24684500D01*
X11925811Y24684500D01*
X11963696Y24676965D01*
X12010250Y24657681D01*
X12114525Y24700873D01*
X12148630Y24715000D01*
X12259377Y24760873D01*
X12278660Y24807430D01*
X12300116Y24839542D01*
X12741376Y25280802D01*
X12811379Y25309797D01*
X12866382Y25293111D01*
X12870360Y25290453D01*
X12870361Y25290453D01*
X12870365Y25290450D01*
X13280250Y25208919D01*
X13690135Y25290450D01*
X13690138Y25290451D01*
X13949574Y25463802D01*
X14037619Y25522631D01*
X14122725Y25650001D01*
X14269799Y25870112D01*
X14269800Y25870115D01*
X14275363Y25898084D01*
X14351331Y26280000D01*
X14344396Y26314864D01*
X14595001Y26314864D01*
X14637790Y26099743D01*
X14800791Y25855794D01*
X14800793Y25855792D01*
X15044739Y25692793D01*
X15044741Y25692792D01*
X15259863Y25650001D01*
X15259864Y25650001D01*
X15319999Y25650002D01*
X15320000Y25650002D01*
X15820000Y25650002D01*
X15820001Y25650001D01*
X15880133Y25650001D01*
X15880136Y25650002D01*
X16095257Y25692791D01*
X16339206Y25855792D01*
X16339208Y25855794D01*
X16502207Y26099740D01*
X16502208Y26099742D01*
X16544999Y26314863D01*
X16545000Y26314867D01*
X16545000Y26387499D01*
X16544999Y26387500D01*
X15820001Y26387500D01*
X15820000Y26387499D01*
X15820000Y25650002D01*
X15320000Y25650002D01*
X15320000Y26387499D01*
X15319999Y26387500D01*
X14595002Y26387500D01*
X14595001Y26387499D01*
X14595001Y26314864D01*
X14344396Y26314864D01*
X14269800Y26689885D01*
X14269800Y26689886D01*
X14269799Y26689889D01*
X14037622Y27037365D01*
X14037621Y27037366D01*
X14037619Y27037369D01*
X14037615Y27037372D01*
X14037614Y27037373D01*
X13690138Y27269550D01*
X13690135Y27269551D01*
X13280250Y27351081D01*
X12870364Y27269551D01*
X12870361Y27269550D01*
X12522885Y27037373D01*
X12522877Y27037365D01*
X12290700Y26689889D01*
X12290699Y26689886D01*
X12209169Y26280000D01*
X12290699Y25870115D01*
X12293361Y25866132D01*
X12294295Y25861435D01*
X12294431Y25861107D01*
X12294365Y25861081D01*
X12308144Y25791816D01*
X12281050Y25741127D01*
X11904421Y25364497D01*
X11834417Y25335500D01*
X5494439Y25335500D01*
X5456553Y25343036D01*
X5437560Y25350903D01*
X5410000Y25362319D01*
X5345253Y25335500D01*
X5160871Y25259127D01*
X5160871Y25259126D01*
X5141588Y25212574D01*
X5120129Y25180457D01*
X3969543Y24029871D01*
X3937426Y24008412D01*
X3890874Y23989129D01*
X3890873Y23989129D01*
X3864055Y23924382D01*
X3864054Y23924380D01*
X3787681Y23740000D01*
X3806964Y23693446D01*
X3814500Y23655562D01*
X3814500Y9219440D01*
X3806964Y9181555D01*
X3787681Y9135001D01*
X3787681Y9135000D01*
X3814500Y9070254D01*
X3814500Y9070253D01*
X3890873Y8885873D01*
X3936765Y8866864D01*
X3937424Y8866591D01*
X3969543Y8845131D01*
X5120129Y7694545D01*
X5141588Y7662429D01*
X5160873Y7615873D01*
X5321425Y7549370D01*
X5345253Y7539500D01*
X5409999Y7512681D01*
X5409999Y7512682D01*
X5410000Y7512681D01*
X5456553Y7531965D01*
X5494439Y7539500D01*
X11040561Y7539500D01*
X11078446Y7531965D01*
X11125000Y7512681D01*
X11144154Y7520615D01*
X11219924Y7520615D01*
X11273503Y7467037D01*
X11273503Y7391266D01*
X11252043Y7359148D01*
X10967393Y7074497D01*
X10897389Y7045500D01*
X5002611Y7045500D01*
X4932607Y7074496D01*
X3349496Y8657607D01*
X3320500Y8727611D01*
X3320500Y33037389D01*
X3349496Y33107393D01*
X7452607Y37210504D01*
X7522611Y37239500D01*
X7694671Y37239500D01*
X7764675Y37210504D01*
X7776986Y37195502D01*
X7836998Y37105688D01*
X7952631Y36932631D01*
X7952634Y36932629D01*
X7952635Y36932628D01*
X8300108Y36700454D01*
X8300113Y36700451D01*
X8300115Y36700450D01*
X8606532Y36639500D01*
X8606533Y36639500D01*
X9113467Y36639500D01*
X9113468Y36639500D01*
X9419885Y36700450D01*
X9455772Y36724430D01*
X9530086Y36739213D01*
X9580778Y36712119D01*
X9957293Y36335604D01*
X9986289Y36265600D01*
X9957293Y36195596D01*
X9887289Y36166600D01*
X9832288Y36183284D01*
X9785775Y36214363D01*
X9785776Y36214363D01*
X9654371Y36240500D01*
X8065632Y36240500D01*
X8065625Y36240499D01*
X7934224Y36214363D01*
X7934223Y36214362D01*
X7785208Y36114794D01*
X7785206Y36114792D01*
X7685637Y35965776D01*
X7659500Y35834374D01*
X7659500Y35614500D01*
X7630504Y35544496D01*
X7560500Y35515500D01*
X7419439Y35515500D01*
X7381553Y35523036D01*
X7335000Y35542319D01*
X7270253Y35515500D01*
X7085871Y35439127D01*
X7085871Y35439126D01*
X7066588Y35392574D01*
X7045129Y35360457D01*
X3969543Y32284871D01*
X3937426Y32263412D01*
X3890874Y32244129D01*
X3890873Y32244129D01*
X3864054Y32179380D01*
X3787681Y31995000D01*
X3806964Y31948446D01*
X3814500Y31910562D01*
X3814500Y27634440D01*
X3806964Y27596555D01*
X3787681Y27550001D01*
X3787681Y27550000D01*
X3814500Y27485254D01*
X3814500Y27485253D01*
X3890873Y27300873D01*
X3936765Y27281864D01*
X3937424Y27281591D01*
X3969543Y27260131D01*
X5120129Y26109545D01*
X5141588Y26077429D01*
X5160873Y26030873D01*
X5225620Y26004054D01*
X5345253Y25954500D01*
X5409999Y25927681D01*
X5409999Y25927682D01*
X5410000Y25927681D01*
X5456553Y25946965D01*
X5494439Y25954500D01*
X10655811Y25954500D01*
X10693696Y25946965D01*
X10740250Y25927681D01*
X10924630Y26004054D01*
X10924629Y26004054D01*
X10989377Y26030873D01*
X11008660Y26077430D01*
X11030118Y26109543D01*
X12741376Y27820802D01*
X12811379Y27849797D01*
X12866382Y27833111D01*
X12870360Y27830453D01*
X12870361Y27830453D01*
X12870365Y27830450D01*
X13280250Y27748919D01*
X13690135Y27830450D01*
X13690138Y27830451D01*
X14006145Y28041601D01*
X14037619Y28062631D01*
X14146629Y28225776D01*
X14269799Y28410112D01*
X14269799Y28410114D01*
X14269798Y28410114D01*
X14269800Y28410115D01*
X14270735Y28414815D01*
X14273397Y28418801D01*
X14273532Y28419124D01*
X14273596Y28419098D01*
X14312832Y28477816D01*
X14367833Y28494500D01*
X14795500Y28494500D01*
X14865504Y28465504D01*
X14894500Y28395500D01*
X14894500Y28169360D01*
X14919913Y28041601D01*
X15016720Y27896720D01*
X15161601Y27799913D01*
X15162263Y27799782D01*
X15162821Y27799408D01*
X15170606Y27796184D01*
X15169964Y27794636D01*
X15225265Y27757688D01*
X15240049Y27683373D01*
X15197955Y27620370D01*
X15162265Y27605586D01*
X15044742Y27582210D01*
X14800793Y27419209D01*
X14800791Y27419207D01*
X14637792Y27175261D01*
X14637791Y27175259D01*
X14595000Y26960138D01*
X14595000Y26887501D01*
X14595001Y26887500D01*
X16544998Y26887500D01*
X16544999Y26887501D01*
X16544999Y26960134D01*
X16544998Y26960137D01*
X16502209Y27175258D01*
X16339208Y27419207D01*
X16339206Y27419209D01*
X16095260Y27582208D01*
X15977734Y27605586D01*
X15914733Y27647683D01*
X15899951Y27721999D01*
X15942048Y27785000D01*
X15977735Y27799782D01*
X15978399Y27799913D01*
X16123280Y27896720D01*
X16220087Y28041601D01*
X16245500Y28169360D01*
X16245500Y28755640D01*
X16220087Y28883399D01*
X16123280Y29028280D01*
X15978399Y29125087D01*
X15850640Y29150500D01*
X15289360Y29150500D01*
X15284868Y29150500D01*
X15246983Y29158036D01*
X15212501Y29172319D01*
X15212500Y29172319D01*
X15177427Y29157791D01*
X15165947Y29153036D01*
X15128061Y29145500D01*
X14367833Y29145500D01*
X14297829Y29174496D01*
X14270735Y29225185D01*
X14270575Y29225989D01*
X14269800Y29229885D01*
X14269799Y29229887D01*
X14269799Y29229889D01*
X14037622Y29577365D01*
X14037621Y29577366D01*
X14037619Y29577369D01*
X14037615Y29577372D01*
X14037614Y29577373D01*
X13690138Y29809550D01*
X13690135Y29809551D01*
X13280250Y29891081D01*
X12870365Y29809551D01*
X12773362Y29744736D01*
X12699046Y29729954D01*
X12636045Y29772051D01*
X12620865Y29844242D01*
X12648330Y30000000D01*
X12648329Y30000003D01*
X12599546Y30276666D01*
X12584887Y30359801D01*
X12601287Y30433774D01*
X12665192Y30474486D01*
X12737383Y30459306D01*
X12870365Y30370450D01*
X13280250Y30288919D01*
X13690135Y30370450D01*
X13690138Y30370451D01*
X13949574Y30543802D01*
X14037619Y30602631D01*
X14129463Y30740085D01*
X14269799Y30950112D01*
X14269800Y30950115D01*
X14270735Y30954815D01*
X14351331Y31360000D01*
X14270735Y31765185D01*
X14269800Y31769886D01*
X14269799Y31769889D01*
X14037622Y32117365D01*
X14037621Y32117366D01*
X14037619Y32117369D01*
X14037615Y32117372D01*
X14037614Y32117373D01*
X13690138Y32349550D01*
X13690135Y32349551D01*
X13280250Y32431081D01*
X12870364Y32349551D01*
X12870361Y32349550D01*
X12522885Y32117373D01*
X12522877Y32117365D01*
X12290703Y31769892D01*
X12290699Y31769883D01*
X12282465Y31728490D01*
X12240368Y31665489D01*
X12166052Y31650709D01*
X12103051Y31692806D01*
X12099639Y31698293D01*
X11911761Y32023708D01*
X11800145Y32117365D01*
X11074168Y32726532D01*
X11074166Y32726533D01*
X11074165Y32726534D01*
X10046702Y33100500D01*
X8953298Y33100500D01*
X7925835Y32726534D01*
X7925834Y32726534D01*
X7925833Y32726533D01*
X7925831Y32726532D01*
X7088240Y32023710D01*
X6541537Y31076791D01*
X6351670Y30000000D01*
X6541537Y28923210D01*
X6541537Y28923209D01*
X6541538Y28923208D01*
X7071177Y28005844D01*
X7088240Y27976291D01*
X7893172Y27300873D01*
X7925835Y27273466D01*
X8953298Y26899500D01*
X8953299Y26899500D01*
X10046701Y26899500D01*
X10046702Y26899500D01*
X10967768Y27234741D01*
X11043465Y27231436D01*
X11094656Y27175571D01*
X11091351Y27099872D01*
X11071630Y27071708D01*
X10634420Y26634497D01*
X10564416Y26605500D01*
X5585834Y26605500D01*
X5515830Y26634496D01*
X4494496Y27655830D01*
X4465500Y27725834D01*
X4465500Y31819166D01*
X4494496Y31889170D01*
X7440830Y34835504D01*
X7510834Y34864500D01*
X7560501Y34864500D01*
X7630505Y34835504D01*
X7659501Y34765500D01*
X7659501Y34545626D01*
X7685637Y34414225D01*
X7685638Y34414224D01*
X7785207Y34265207D01*
X7934224Y34165638D01*
X7934223Y34165638D01*
X7960361Y34160440D01*
X8065629Y34139500D01*
X9654370Y34139501D01*
X9785776Y34165638D01*
X9934793Y34265207D01*
X10034362Y34414224D01*
X10060500Y34545629D01*
X10060499Y35834370D01*
X10034362Y35965776D01*
X10011494Y36000000D01*
X10003284Y36012288D01*
X9988501Y36086604D01*
X10030597Y36149605D01*
X10104913Y36164388D01*
X10155603Y36137294D01*
X12202233Y34090664D01*
X12231229Y34020660D01*
X12229327Y34001347D01*
X12209169Y33900001D01*
X12290699Y33490115D01*
X12290700Y33490112D01*
X12522877Y33142636D01*
X12522878Y33142635D01*
X12522881Y33142631D01*
X12522884Y33142629D01*
X12522885Y33142628D01*
X12870361Y32910451D01*
X12870364Y32910450D01*
X12910785Y32902410D01*
X13280250Y32828919D01*
X13690135Y32910450D01*
X13690138Y32910451D01*
X13974565Y33100500D01*
X14037619Y33142631D01*
X14109304Y33249915D01*
X14269799Y33490112D01*
X14269800Y33490115D01*
X14270735Y33494818D01*
X14351331Y33900000D01*
X14289652Y34210079D01*
X14304434Y34284393D01*
X14316746Y34299394D01*
X14377858Y34360505D01*
X14447860Y34389500D01*
X14769445Y34389500D01*
X14839449Y34360504D01*
X14866543Y34309812D01*
X14870637Y34289226D01*
X14870638Y34289224D01*
X14970207Y34140207D01*
X15119224Y34040638D01*
X15119223Y34040638D01*
X15145361Y34035440D01*
X15250629Y34014500D01*
X15889370Y34014501D01*
X16020776Y34040638D01*
X16169793Y34140207D01*
X16269362Y34289224D01*
X16271392Y34299430D01*
X16273458Y34309815D01*
X16315555Y34372816D01*
X16370556Y34389500D01*
X16942389Y34389500D01*
X17012393Y34360504D01*
X17630504Y33742393D01*
X17659500Y33672389D01*
X17659500Y26389304D01*
X17651964Y26351419D01*
X17622382Y26280001D01*
X17622382Y26280000D01*
X17659500Y26190390D01*
X17758753Y25950770D01*
X17765202Y25935202D01*
X17834705Y25906413D01*
X17836617Y25905621D01*
X17868736Y25884161D01*
X24615504Y19137393D01*
X24644500Y19067389D01*
X24644500Y7457611D01*
X24615504Y7387607D01*
X24302393Y7074496D01*
X24232389Y7045500D01*
X23025277Y7045500D01*
X22955273Y7074496D01*
X22926277Y7144500D01*
X22933813Y7182385D01*
X22976319Y7285007D01*
X22997775Y7317120D01*
X23572880Y7892225D01*
X23604993Y7913681D01*
X23726140Y7963860D01*
X23783856Y8103199D01*
X23948217Y8500000D01*
X23937105Y8526824D01*
X23937105Y8602593D01*
X23946251Y8619705D01*
X23989362Y8684224D01*
X24015500Y8815629D01*
X24015499Y9454370D01*
X23989362Y9585776D01*
X23953264Y9639800D01*
X23907184Y9708766D01*
X23890500Y9763767D01*
X23890500Y10500969D01*
X23898036Y10538855D01*
X23898304Y10539502D01*
X23948216Y10660000D01*
X23819603Y10970500D01*
X23780125Y11065809D01*
X23780122Y11065813D01*
X23726140Y11196140D01*
X23657620Y11224522D01*
X23604995Y11246320D01*
X23572877Y11267780D01*
X23417778Y11422879D01*
X23396318Y11454998D01*
X23375791Y11504555D01*
X23346140Y11576140D01*
X23242577Y11619037D01*
X22949339Y11740500D01*
X22820092Y11794036D01*
X22812007Y11802120D01*
X22799909Y11794037D01*
X22729723Y11764964D01*
X22688855Y11748036D01*
X22650969Y11740500D01*
X22309901Y11740500D01*
X22239897Y11769496D01*
X22210901Y11839500D01*
X22234901Y11897445D01*
X22232280Y11899196D01*
X22259880Y11940502D01*
X22322881Y11982598D01*
X22342195Y11984500D01*
X22762023Y11984500D01*
X22808412Y11965286D01*
X22820091Y11976964D01*
X22857977Y11984500D01*
X23105561Y11984500D01*
X23143446Y11976965D01*
X23190000Y11957681D01*
X23334853Y12017681D01*
X23439127Y12060873D01*
X23458410Y12107430D01*
X23479866Y12139542D01*
X24120458Y12780134D01*
X24152570Y12801590D01*
X24199127Y12820873D01*
X24275500Y13005253D01*
X24275500Y13005254D01*
X24302319Y13070000D01*
X24298384Y13079501D01*
X24283036Y13116555D01*
X24275500Y13154440D01*
X24275500Y17815564D01*
X24283036Y17853450D01*
X24285703Y17859887D01*
X24302318Y17900000D01*
X24300568Y17904224D01*
X24275500Y17964746D01*
X24246141Y18035626D01*
X24199127Y18149127D01*
X24152573Y18168411D01*
X24120457Y18189870D01*
X20959869Y21350457D01*
X20938409Y21382576D01*
X20919127Y21429126D01*
X20919127Y21429127D01*
X20843504Y21460451D01*
X20734747Y21505500D01*
X20670000Y21532319D01*
X20623447Y21513036D01*
X20585561Y21505500D01*
X10097583Y21505500D01*
X10027579Y21534496D01*
X10000485Y21585185D01*
X10000325Y21585989D01*
X9999550Y21589885D01*
X9999549Y21589887D01*
X9999549Y21589889D01*
X9767372Y21937365D01*
X9767371Y21937366D01*
X9767369Y21937369D01*
X9767365Y21937372D01*
X9767364Y21937373D01*
X9419891Y22169547D01*
X9419886Y22169550D01*
X9113470Y22230500D01*
X9113468Y22230500D01*
X8606532Y22230500D01*
X8606529Y22230500D01*
X8300113Y22169550D01*
X8300108Y22169547D01*
X7952635Y21937373D01*
X7952627Y21937365D01*
X7720450Y21589889D01*
X7720449Y21589886D01*
X7638919Y21180000D01*
X7720449Y20770115D01*
X7720450Y20770112D01*
X7952627Y20422636D01*
X7952628Y20422635D01*
X7952631Y20422631D01*
X7952634Y20422629D01*
X7952635Y20422628D01*
X8300108Y20190454D01*
X8300113Y20190451D01*
X8300115Y20190450D01*
X8606532Y20129500D01*
X8606533Y20129500D01*
X9113467Y20129500D01*
X9113468Y20129500D01*
X9419885Y20190450D01*
X9767369Y20422631D01*
X9861700Y20563807D01*
X9999549Y20770112D01*
X9999549Y20770114D01*
X9999548Y20770114D01*
X9999550Y20770115D01*
X10000485Y20774815D01*
X10003147Y20778801D01*
X10003282Y20779124D01*
X10003346Y20779098D01*
X10042582Y20837816D01*
X10097583Y20854500D01*
X20494166Y20854500D01*
X20564170Y20825504D01*
X23595504Y17794170D01*
X23624500Y17724166D01*
X23624500Y13245834D01*
X23595504Y13175830D01*
X23084170Y12664496D01*
X23014166Y12635500D01*
X22342195Y12635500D01*
X22272191Y12664496D01*
X22259880Y12679498D01*
X22244471Y12702559D01*
X22229688Y12776875D01*
X22271784Y12839876D01*
X22271785Y12839877D01*
X22453622Y12961376D01*
X22453624Y12961378D01*
X22597284Y13176381D01*
X22597284Y13176382D01*
X22627843Y13330000D01*
X21009000Y13330000D01*
X20938996Y13358996D01*
X20910000Y13429000D01*
X20910000Y13731000D01*
X20938996Y13801004D01*
X21009000Y13830000D01*
X22627842Y13830000D01*
X22597284Y13983619D01*
X22597284Y13983620D01*
X22453624Y14198623D01*
X22453622Y14198625D01*
X22271785Y14320124D01*
X22229688Y14383126D01*
X22244469Y14457440D01*
X22315164Y14563242D01*
X22335500Y14665477D01*
X22335499Y14764167D01*
X22364495Y14834170D01*
X23106458Y15576134D01*
X23138570Y15597590D01*
X23185127Y15616873D01*
X23261500Y15801253D01*
X23261500Y15801254D01*
X23288319Y15866000D01*
X23286301Y15870873D01*
X23269036Y15912555D01*
X23261500Y15950440D01*
X23261500Y17051562D01*
X23269035Y17089446D01*
X23288319Y17136000D01*
X23249175Y17230503D01*
X23185127Y17385127D01*
X23138571Y17404412D01*
X23106455Y17425871D01*
X21681869Y18850457D01*
X21660409Y18882576D01*
X21641127Y18929126D01*
X21641127Y18929127D01*
X21565504Y18960451D01*
X21456747Y19005500D01*
X21392000Y19032319D01*
X21345447Y19013036D01*
X21307561Y19005500D01*
X10159499Y19005500D01*
X10089495Y19034496D01*
X10060499Y19104500D01*
X10060499Y19324368D01*
X10060498Y19324375D01*
X10034362Y19455776D01*
X10034361Y19455777D01*
X9971279Y19550187D01*
X9934793Y19604793D01*
X9785776Y19704362D01*
X9785775Y19704363D01*
X9785776Y19704363D01*
X9654371Y19730500D01*
X8065632Y19730500D01*
X8065625Y19730499D01*
X7934224Y19704363D01*
X7934223Y19704362D01*
X7785208Y19604794D01*
X7785206Y19604792D01*
X7685637Y19455776D01*
X7659500Y19324374D01*
X7659500Y18035633D01*
X7659501Y18035626D01*
X7685637Y17904225D01*
X7685638Y17904224D01*
X7785207Y17755207D01*
X7934224Y17655638D01*
X7934223Y17655638D01*
X7960361Y17650440D01*
X8065629Y17629500D01*
X9654370Y17629501D01*
X9785776Y17655638D01*
X9934793Y17755207D01*
X10034362Y17904224D01*
X10060500Y18035629D01*
X10060500Y18255500D01*
X10089496Y18325504D01*
X10159500Y18354500D01*
X21216166Y18354500D01*
X21286170Y18325504D01*
X22581504Y17030170D01*
X22610500Y16960166D01*
X22610500Y16041835D01*
X22581504Y15971831D01*
X21989169Y15379496D01*
X21919165Y15350500D01*
X20300480Y15350500D01*
X20300473Y15350499D01*
X20198242Y15330165D01*
X20198241Y15330164D01*
X20082304Y15252699D01*
X20082301Y15252696D01*
X20004837Y15136761D01*
X20004837Y15136760D01*
X20004836Y15136758D01*
X19984500Y15034523D01*
X19984500Y14850001D01*
X19984501Y14694000D01*
X19955505Y14623997D01*
X19885501Y14595000D01*
X19668618Y14595000D01*
X19649304Y14596902D01*
X19585000Y14609693D01*
X19520696Y14596902D01*
X19501382Y14595000D01*
X18935001Y14595000D01*
X18935000Y14594999D01*
X18935000Y11295001D01*
X18935001Y11295000D01*
X19501382Y11295000D01*
X19520696Y11293098D01*
X19585000Y11280308D01*
X19649304Y11293098D01*
X19668618Y11295000D01*
X19885500Y11295000D01*
X19955504Y11266004D01*
X19984500Y11196000D01*
X19984500Y10855481D01*
X19984501Y10855474D01*
X20004835Y10753243D01*
X20004836Y10753242D01*
X20082301Y10637305D01*
X20082303Y10637303D01*
X20198242Y10559836D01*
X20300477Y10539500D01*
X20547212Y10539501D01*
X20617215Y10510505D01*
X20617216Y10510505D01*
X20623859Y10503862D01*
X20623860Y10503860D01*
X20822260Y10421680D01*
X21020660Y10339500D01*
X21020661Y10339500D01*
X21038377Y10339500D01*
X21108381Y10310504D01*
X21137377Y10240500D01*
X21108381Y10170496D01*
X21057691Y10143402D01*
X20922364Y10116484D01*
X20922362Y10116483D01*
X20674281Y9950721D01*
X20674279Y9950719D01*
X20508517Y9702638D01*
X20508516Y9702636D01*
X20465000Y9483869D01*
X20465000Y9385001D01*
X20465001Y9385000D01*
X21741000Y9385000D01*
X21811004Y9356004D01*
X21840000Y9286000D01*
X21840000Y8984000D01*
X21811004Y8913996D01*
X21741000Y8885000D01*
X20465001Y8885000D01*
X20465000Y8884999D01*
X20465000Y8786132D01*
X20508516Y8567365D01*
X20508518Y8567360D01*
X20517111Y8554500D01*
X20531893Y8480185D01*
X20489795Y8417184D01*
X20434795Y8400500D01*
X16999031Y8400500D01*
X16961145Y8408036D01*
X16955464Y8410389D01*
X16840000Y8458216D01*
X16700661Y8400500D01*
X16303861Y8236141D01*
X16303859Y8236139D01*
X16253680Y8114997D01*
X16232220Y8082879D01*
X15187121Y7037780D01*
X15155003Y7016320D01*
X15033861Y6966141D01*
X15033859Y6966139D01*
X15010866Y6910629D01*
X14985831Y6850187D01*
X14976144Y6826801D01*
X14830633Y6475505D01*
X14811784Y6430000D01*
X14856677Y6321619D01*
X14861964Y6308855D01*
X14869500Y6270969D01*
X14869500Y5789500D01*
X14840504Y5719496D01*
X14770500Y5690500D01*
X14750252Y5690500D01*
X14750251Y5690500D01*
X14750241Y5690499D01*
X14691772Y5678868D01*
X14691766Y5678866D01*
X14625451Y5634555D01*
X14625445Y5634549D01*
X14581134Y5568234D01*
X14581132Y5568228D01*
X14569501Y5509759D01*
X14569500Y5509747D01*
X14569500Y4820251D01*
X14540504Y4750247D01*
X14470500Y4721251D01*
X14400496Y4750247D01*
X14373402Y4800937D01*
X14294572Y5197237D01*
X14294571Y5197239D01*
X14148861Y5415309D01*
X13479699Y4746148D01*
X13376147Y4996147D01*
X13149565Y5090000D01*
X13116444Y5090000D01*
X13795308Y5768864D01*
X13577241Y5914571D01*
X13577236Y5914573D01*
X13069999Y6015469D01*
X12562765Y5914575D01*
X12344691Y5768863D01*
X13023554Y5090000D01*
X12990435Y5090000D01*
X12763853Y4996147D01*
X12660299Y4746147D01*
X11991137Y5415309D01*
X11845425Y5197235D01*
X11744531Y4690001D01*
X11845427Y4182764D01*
X11845429Y4182759D01*
X11991136Y3964693D01*
X12660298Y4633856D01*
X12763853Y4383853D01*
X12990435Y4290000D01*
X13023552Y4290000D01*
X12344691Y3611139D01*
X12562761Y3465429D01*
X12562763Y3465428D01*
X13070000Y3364532D01*
X13577236Y3465428D01*
X13577238Y3465429D01*
X13795307Y3611139D01*
X13116446Y4290000D01*
X13149565Y4290000D01*
X13376147Y4383853D01*
X13479700Y4633854D01*
X14148861Y3964693D01*
X14294571Y4182762D01*
X14294572Y4182764D01*
X14373402Y4579064D01*
X14415499Y4642065D01*
X14489814Y4656848D01*
X14552815Y4614751D01*
X14569500Y4559750D01*
X14569500Y3870254D01*
X14569501Y3870242D01*
X14581132Y3811773D01*
X14581133Y3811769D01*
X14625448Y3745448D01*
X14691769Y3701133D01*
X14736231Y3692289D01*
X14750241Y3689502D01*
X14750246Y3689502D01*
X14750252Y3689500D01*
X15538835Y3689500D01*
X15608839Y3660504D01*
X16232220Y3037123D01*
X16253680Y3005005D01*
X16303859Y2883862D01*
X16303860Y2883860D01*
X16434188Y2829877D01*
X16434193Y2829874D01*
X16598676Y2761744D01*
X16840000Y2661784D01*
X16961145Y2711965D01*
X16999031Y2719500D01*
X20218110Y2719500D01*
X20237424Y2717598D01*
X20353546Y2694500D01*
X20353547Y2694500D01*
X20946453Y2694500D01*
X20946454Y2694500D01*
X21062576Y2717598D01*
X21081890Y2719500D01*
X35730969Y2719500D01*
X35768854Y2711965D01*
X35890000Y2661784D01*
X35890001Y2661784D01*
X36314473Y2837606D01*
X36314500Y2837619D01*
X36426140Y2883860D01*
X36476320Y3005009D01*
X36497775Y3037121D01*
X41332878Y7872224D01*
X41364992Y7893680D01*
X41486140Y7943860D01*
X41631113Y8293856D01*
X41708217Y8480000D01*
X41705598Y8486321D01*
X41705598Y8562089D01*
X41742059Y8606519D01*
X41874793Y8695207D01*
X41974362Y8844224D01*
X42000500Y8975629D01*
X42000499Y10564370D01*
X41974362Y10695776D01*
X41874793Y10844793D01*
X41725776Y10944362D01*
X41725775Y10944363D01*
X41725776Y10944363D01*
X41594371Y10970500D01*
X40305632Y10970500D01*
X40305625Y10970499D01*
X40174224Y10944363D01*
X40174223Y10944362D01*
X40025208Y10844794D01*
X40025206Y10844792D01*
X39925637Y10695776D01*
X39899500Y10564374D01*
X39899500Y10506966D01*
X39870504Y10436962D01*
X39800500Y10407966D01*
X39730496Y10436962D01*
X39718185Y10451964D01*
X39423297Y10893294D01*
X39423291Y10893300D01*
X38976750Y11191669D01*
X38976745Y11191672D01*
X38700000Y11246720D01*
X38700000Y10207643D01*
X38549456Y10270000D01*
X38350544Y10270000D01*
X38200000Y10207643D01*
X38200000Y11246720D01*
X37923254Y11191672D01*
X37923249Y11191669D01*
X37476708Y10893300D01*
X37476700Y10893292D01*
X37178331Y10446751D01*
X37178328Y10446746D01*
X37100000Y10052966D01*
X37100000Y10020001D01*
X37100001Y10020000D01*
X38012358Y10020000D01*
X37908804Y9770000D01*
X38012358Y9520000D01*
X37100001Y9520000D01*
X37100000Y9519999D01*
X37100000Y9487035D01*
X37178328Y9093255D01*
X37178331Y9093250D01*
X37476700Y8646709D01*
X37476708Y8646701D01*
X37923252Y8348329D01*
X37923256Y8348328D01*
X38199999Y8293282D01*
X38200000Y8293282D01*
X38200000Y9332358D01*
X38350544Y9270000D01*
X38549456Y9270000D01*
X38700000Y9332358D01*
X38700000Y8293282D01*
X38976743Y8348328D01*
X38976747Y8348329D01*
X39423291Y8646701D01*
X39423296Y8646706D01*
X39718184Y9088038D01*
X39781186Y9130135D01*
X39855501Y9115353D01*
X39897598Y9052351D01*
X39899500Y9033039D01*
X39899500Y8975633D01*
X39899501Y8975626D01*
X39925637Y8844225D01*
X39925638Y8844224D01*
X40025207Y8695207D01*
X40029877Y8690537D01*
X40058870Y8620532D01*
X40029874Y8550532D01*
X35628839Y4149496D01*
X35558835Y4120500D01*
X21912445Y4120500D01*
X21842441Y4149496D01*
X21813445Y4219500D01*
X21830130Y4274503D01*
X21840528Y4290065D01*
X21870353Y4440000D01*
X20979404Y4440000D01*
X21082957Y4690000D01*
X20979404Y4940000D01*
X21870353Y4940000D01*
X21840528Y5089936D01*
X21840527Y5089938D01*
X21617184Y5424195D01*
X21600500Y5479196D01*
X21600500Y6045500D01*
X21629496Y6115504D01*
X21699500Y6144500D01*
X24350697Y6144500D01*
X24388582Y6136965D01*
X24460000Y6107382D01*
X24715187Y6213084D01*
X24715186Y6213084D01*
X24804798Y6250202D01*
X24834381Y6321625D01*
X24855837Y6353736D01*
X25024997Y6522895D01*
X25094999Y6551890D01*
X25165003Y6522894D01*
X25334159Y6353738D01*
X25355619Y6321620D01*
X25360907Y6308855D01*
X25385202Y6250202D01*
X25581630Y6168839D01*
X25640389Y6144500D01*
X25729999Y6107382D01*
X25729999Y6107383D01*
X25730000Y6107382D01*
X25801417Y6136965D01*
X25839303Y6144500D01*
X28795697Y6144500D01*
X28833582Y6136965D01*
X28905000Y6107382D01*
X29160187Y6213084D01*
X29160186Y6213084D01*
X29249798Y6250202D01*
X29279380Y6321621D01*
X29300840Y6353738D01*
X29422608Y6475505D01*
X29492611Y6504501D01*
X29959368Y6504501D01*
X29959370Y6504501D01*
X30075113Y6527523D01*
X30149428Y6512740D01*
X30176742Y6485426D01*
X30224278Y6414282D01*
X30472362Y6248518D01*
X30472364Y6248517D01*
X30691131Y6205001D01*
X30691135Y6205000D01*
X30889999Y6205000D01*
X30890000Y6205001D01*
X31390000Y6205001D01*
X31390001Y6205000D01*
X31588865Y6205000D01*
X31588868Y6205001D01*
X31807635Y6248517D01*
X31807637Y6248518D01*
X32055718Y6414280D01*
X32055720Y6414282D01*
X32221482Y6662363D01*
X32221483Y6662365D01*
X32264999Y6881132D01*
X32265000Y6881136D01*
X32265000Y6979999D01*
X32264999Y6980000D01*
X31390001Y6980000D01*
X31390000Y6979999D01*
X31390000Y6205001D01*
X30890000Y6205001D01*
X30890000Y7480001D01*
X31390000Y7480001D01*
X31390001Y7480000D01*
X32264999Y7480000D01*
X32265000Y7480001D01*
X32265000Y7578865D01*
X32264999Y7578869D01*
X32221483Y7797636D01*
X32221482Y7797638D01*
X32055720Y8045719D01*
X32055718Y8045721D01*
X31807637Y8211483D01*
X31807635Y8211484D01*
X31588868Y8255000D01*
X31390001Y8255000D01*
X31390000Y8254999D01*
X31390000Y7480001D01*
X30890000Y7480001D01*
X30890000Y8254999D01*
X30889999Y8255000D01*
X30691131Y8255000D01*
X30472364Y8211484D01*
X30472362Y8211483D01*
X30224281Y8045721D01*
X30224277Y8045717D01*
X30176741Y7974574D01*
X30113739Y7932478D01*
X30075111Y7932479D01*
X30030185Y7941416D01*
X29967184Y7983513D01*
X29950500Y8038513D01*
X29950500Y8470501D01*
X29979496Y8540505D01*
X30049500Y8569501D01*
X30144368Y8569501D01*
X30144370Y8569501D01*
X30275776Y8595638D01*
X30424793Y8695207D01*
X30524362Y8844224D01*
X30550500Y8975629D01*
X30550499Y10138211D01*
X30579495Y10208214D01*
X30649499Y10237210D01*
X30719503Y10208214D01*
X30735235Y10187710D01*
X30932665Y9845752D01*
X31803121Y9115353D01*
X31824292Y9097589D01*
X32918033Y8699500D01*
X32918034Y8699500D01*
X34081966Y8699500D01*
X34081967Y8699500D01*
X35175708Y9097589D01*
X36067334Y9845751D01*
X36649301Y10853748D01*
X36851416Y12000000D01*
X36649301Y13146252D01*
X36080931Y14130698D01*
X36078810Y14146813D01*
X36072711Y14149738D01*
X35175711Y14902409D01*
X35175709Y14902410D01*
X35175708Y14902411D01*
X34081967Y15300500D01*
X32918033Y15300500D01*
X31824292Y14902411D01*
X31824291Y14902411D01*
X31824290Y14902410D01*
X31824288Y14902409D01*
X30932667Y14154251D01*
X30350698Y13146251D01*
X30186996Y12217846D01*
X30146284Y12153941D01*
X30072309Y12137541D01*
X30008404Y12178253D01*
X29990500Y12235037D01*
X29990500Y14622390D01*
X30019495Y14692393D01*
X31686265Y16359164D01*
X31718379Y16380620D01*
X31789798Y16410202D01*
X31895500Y16665389D01*
X31895500Y16665390D01*
X31932618Y16755000D01*
X31932618Y16755001D01*
X31903036Y16826419D01*
X31895500Y16864304D01*
X31895500Y19702389D01*
X31924496Y19772393D01*
X34122607Y21970504D01*
X34192611Y21999500D01*
X36379671Y21999500D01*
X36449675Y21970504D01*
X36461986Y21955502D01*
X36474105Y21937365D01*
X36637631Y21692631D01*
X36637634Y21692629D01*
X36637635Y21692628D01*
X36985108Y21460454D01*
X36985113Y21460451D01*
X36985115Y21460450D01*
X37291532Y21399500D01*
X37291533Y21399500D01*
X37748467Y21399500D01*
X37748468Y21399500D01*
X38054885Y21460450D01*
X38402369Y21692631D01*
X38528149Y21880874D01*
X38634549Y22040112D01*
X38634550Y22040115D01*
X38652429Y22130001D01*
X38716081Y22450000D01*
X38634550Y22859885D01*
X38634550Y22859886D01*
X38634549Y22859889D01*
X38402372Y23207365D01*
X38402370Y23207367D01*
X38402369Y23207369D01*
X38402365Y23207372D01*
X38402364Y23207373D01*
X38054891Y23439547D01*
X38054886Y23439550D01*
X37748470Y23500500D01*
X37748468Y23500500D01*
X37291532Y23500500D01*
X37291529Y23500500D01*
X36985113Y23439550D01*
X36985108Y23439547D01*
X36637635Y23207373D01*
X36637629Y23207367D01*
X36461986Y22944498D01*
X36398985Y22902402D01*
X36379671Y22900500D01*
X34074303Y22900500D01*
X34036417Y22908036D01*
X33985402Y22929167D01*
X33965000Y22937618D01*
X33875389Y22900500D01*
X33620201Y22794798D01*
X33590619Y22723381D01*
X33569159Y22691264D01*
X31203736Y20325841D01*
X31171619Y20304381D01*
X31100202Y20274799D01*
X31063084Y20185187D01*
X30957382Y19930000D01*
X30986964Y19858584D01*
X30994500Y19820698D01*
X30994500Y16982612D01*
X30965504Y16912608D01*
X29298736Y15245841D01*
X29266619Y15224381D01*
X29195202Y15194799D01*
X29128814Y15034522D01*
X29052382Y14850000D01*
X29081964Y14778584D01*
X29089500Y14740698D01*
X29089500Y11069500D01*
X29060504Y10999496D01*
X28990501Y10970500D01*
X28855632Y10970500D01*
X28855625Y10970499D01*
X28724224Y10944363D01*
X28724223Y10944362D01*
X28575208Y10844794D01*
X28575206Y10844792D01*
X28475637Y10695776D01*
X28449500Y10564374D01*
X28449500Y8975633D01*
X28449501Y8975626D01*
X28475637Y8844225D01*
X28475638Y8844224D01*
X28575207Y8695207D01*
X28724224Y8595638D01*
X28724223Y8595638D01*
X28754524Y8589611D01*
X28855629Y8569500D01*
X28950500Y8569501D01*
X29020503Y8540505D01*
X29049500Y8470502D01*
X29049500Y8020479D01*
X29020504Y7950475D01*
X28997232Y7934927D01*
X28997331Y7934779D01*
X28840208Y7829794D01*
X28840206Y7829792D01*
X28740637Y7680776D01*
X28714500Y7549374D01*
X28714500Y7549371D01*
X28714500Y7303199D01*
X28714501Y7144500D01*
X28685505Y7074497D01*
X28615501Y7045500D01*
X25957611Y7045500D01*
X25887607Y7074496D01*
X25574496Y7387607D01*
X25545500Y7457611D01*
X25545500Y19185698D01*
X25553036Y19223584D01*
X25582618Y19295000D01*
X25476916Y19550187D01*
X25454298Y19604792D01*
X25439798Y19639798D01*
X25439796Y19639799D01*
X25368380Y19669381D01*
X25336262Y19690841D01*
X21597239Y23429864D01*
X23830001Y23429864D01*
X23872790Y23214743D01*
X24035791Y22970794D01*
X24035793Y22970792D01*
X24279739Y22807793D01*
X24279741Y22807792D01*
X24494863Y22765001D01*
X24567499Y22765002D01*
X24567500Y22765002D01*
X25067500Y22765002D01*
X25067501Y22765001D01*
X25140133Y22765001D01*
X25140136Y22765002D01*
X25355257Y22807791D01*
X25599206Y22970792D01*
X25599208Y22970794D01*
X25762207Y23214740D01*
X25762207Y23214741D01*
X25785585Y23332265D01*
X25827682Y23395267D01*
X25901997Y23410049D01*
X25964999Y23367952D01*
X25979779Y23332272D01*
X25979911Y23331606D01*
X25979912Y23331603D01*
X25979913Y23331601D01*
X26076720Y23186720D01*
X26221601Y23089913D01*
X26349360Y23064500D01*
X26349361Y23064500D01*
X26935639Y23064500D01*
X26935640Y23064500D01*
X27063399Y23089913D01*
X27208280Y23186720D01*
X27305087Y23331601D01*
X27305727Y23334818D01*
X27307547Y23337543D01*
X27308817Y23340607D01*
X27309426Y23340355D01*
X27347826Y23397818D01*
X27402824Y23414500D01*
X28357667Y23414500D01*
X28427671Y23385504D01*
X28454765Y23334815D01*
X28455700Y23330114D01*
X28455700Y23330112D01*
X28687877Y22982636D01*
X28687878Y22982635D01*
X28687881Y22982631D01*
X28687884Y22982629D01*
X28687885Y22982628D01*
X29035362Y22750451D01*
X29035364Y22750451D01*
X29035365Y22750450D01*
X29040059Y22749517D01*
X29044041Y22746856D01*
X29044374Y22746718D01*
X29044346Y22746652D01*
X29103062Y22707424D01*
X29119750Y22652418D01*
X29119750Y17471085D01*
X29090754Y17401081D01*
X26829543Y15139871D01*
X26797426Y15118412D01*
X26750874Y15099129D01*
X26750873Y15099129D01*
X26724054Y15034380D01*
X26669390Y14902409D01*
X26647681Y14850000D01*
X26666964Y14803446D01*
X26674500Y14765562D01*
X26674500Y11007583D01*
X26645504Y10937579D01*
X26594820Y10910486D01*
X26590114Y10909550D01*
X26590110Y10909548D01*
X26242635Y10677373D01*
X26242627Y10677365D01*
X26010453Y10329892D01*
X26010450Y10329887D01*
X25949500Y10023471D01*
X25949500Y9516530D01*
X26010450Y9210114D01*
X26010453Y9210109D01*
X26242627Y8862636D01*
X26242628Y8862635D01*
X26242631Y8862631D01*
X26242634Y8862629D01*
X26242635Y8862628D01*
X26590111Y8630451D01*
X26590114Y8630450D01*
X26639976Y8620532D01*
X27000000Y8548919D01*
X27409885Y8630450D01*
X27409888Y8630451D01*
X27731178Y8845131D01*
X27757369Y8862631D01*
X27989550Y9210115D01*
X28050500Y9516532D01*
X28050500Y10023468D01*
X27989550Y10329885D01*
X27989549Y10329887D01*
X27989546Y10329892D01*
X27757372Y10677365D01*
X27757371Y10677366D01*
X27757369Y10677369D01*
X27757365Y10677372D01*
X27757364Y10677373D01*
X27409889Y10909548D01*
X27409885Y10909550D01*
X27405180Y10910486D01*
X27401194Y10913150D01*
X27400879Y10913280D01*
X27400905Y10913343D01*
X27342181Y10952587D01*
X27325500Y11007583D01*
X27325500Y14674166D01*
X27354496Y14744170D01*
X28481200Y15870874D01*
X29615710Y17005385D01*
X29647822Y17026840D01*
X29694377Y17046123D01*
X29721195Y17110869D01*
X29721197Y17110870D01*
X29797569Y17295250D01*
X29797569Y17295251D01*
X29778286Y17341805D01*
X29770750Y17379690D01*
X29770750Y22652418D01*
X29799746Y22722422D01*
X29850440Y22749517D01*
X29855135Y22750450D01*
X29855136Y22750451D01*
X29855137Y22750451D01*
X29855138Y22750451D01*
X30145549Y22944498D01*
X30202619Y22982631D01*
X30274304Y23089915D01*
X30434799Y23330112D01*
X30434800Y23330115D01*
X30435735Y23334818D01*
X30516331Y23740000D01*
X30436528Y24141200D01*
X30434800Y24149886D01*
X30434799Y24149889D01*
X30202622Y24497365D01*
X30202621Y24497366D01*
X30202619Y24497369D01*
X30202615Y24497372D01*
X30202614Y24497373D01*
X29855138Y24729550D01*
X29855135Y24729551D01*
X29445250Y24811081D01*
X29035364Y24729551D01*
X29035361Y24729550D01*
X28687885Y24497373D01*
X28687877Y24497365D01*
X28455700Y24149889D01*
X28455700Y24149887D01*
X28454765Y24145185D01*
X28452102Y24141200D01*
X28451968Y24140876D01*
X28451903Y24140903D01*
X28412668Y24082184D01*
X28357667Y24065500D01*
X27402824Y24065500D01*
X27332820Y24094496D01*
X27308820Y24139395D01*
X27308817Y24139393D01*
X27308801Y24139430D01*
X27305727Y24145182D01*
X27305087Y24148399D01*
X27305085Y24148402D01*
X27275532Y24192631D01*
X27208280Y24293280D01*
X27063399Y24390087D01*
X26935640Y24415500D01*
X26349360Y24415500D01*
X26349359Y24415500D01*
X26317635Y24409190D01*
X26221601Y24390087D01*
X26221599Y24390087D01*
X26221599Y24390086D01*
X26221597Y24390085D01*
X26076722Y24293282D01*
X26076718Y24293278D01*
X25979915Y24148403D01*
X25979911Y24148395D01*
X25979779Y24147728D01*
X25979401Y24147164D01*
X25976184Y24139394D01*
X25974637Y24140035D01*
X25937679Y24084730D01*
X25863362Y24069953D01*
X25800364Y24112053D01*
X25785585Y24147736D01*
X25762209Y24265258D01*
X25599208Y24509207D01*
X25599206Y24509209D01*
X25355260Y24672208D01*
X25355258Y24672209D01*
X25140137Y24715000D01*
X25067501Y24715000D01*
X25067500Y24714999D01*
X25067500Y22765002D01*
X24567500Y22765002D01*
X24567500Y23489999D01*
X24567499Y23490000D01*
X23830002Y23490000D01*
X23830001Y23489999D01*
X23830001Y23429864D01*
X21597239Y23429864D01*
X21037102Y23990001D01*
X23830000Y23990001D01*
X23830001Y23990000D01*
X24567499Y23990000D01*
X24567500Y23990001D01*
X24567500Y24715001D01*
X24494867Y24715000D01*
X24494862Y24714999D01*
X24279742Y24672210D01*
X24035793Y24509209D01*
X24035791Y24509207D01*
X23872792Y24265261D01*
X23872791Y24265259D01*
X23830000Y24050138D01*
X23830000Y23990001D01*
X21037102Y23990001D01*
X18747103Y26280000D01*
X28374169Y26280000D01*
X28455699Y25870115D01*
X28455700Y25870112D01*
X28687877Y25522636D01*
X28687878Y25522635D01*
X28687881Y25522631D01*
X28687884Y25522629D01*
X28687885Y25522628D01*
X29035361Y25290451D01*
X29035364Y25290450D01*
X29083874Y25280801D01*
X29445250Y25208919D01*
X29855135Y25290450D01*
X29859113Y25293109D01*
X29863806Y25294043D01*
X29864146Y25294183D01*
X29864173Y25294116D01*
X29933425Y25307896D01*
X29984123Y25280801D01*
X30485379Y24779545D01*
X30506838Y24747429D01*
X30526123Y24700873D01*
X30635653Y24655504D01*
X30710503Y24624500D01*
X30775249Y24597681D01*
X30775249Y24597682D01*
X30775250Y24597681D01*
X30821803Y24616965D01*
X30859689Y24624500D01*
X36307417Y24624500D01*
X36377421Y24595504D01*
X36404515Y24544815D01*
X36405450Y24540114D01*
X36405450Y24540112D01*
X36637627Y24192636D01*
X36637628Y24192635D01*
X36637631Y24192631D01*
X36637634Y24192629D01*
X36637635Y24192628D01*
X36985108Y23960454D01*
X36985113Y23960451D01*
X36985115Y23960450D01*
X37291532Y23899500D01*
X37291533Y23899500D01*
X37748467Y23899500D01*
X37748468Y23899500D01*
X38054885Y23960450D01*
X38402369Y24192631D01*
X38469622Y24293282D01*
X38634549Y24540112D01*
X38634550Y24540115D01*
X38635485Y24544815D01*
X38716081Y24950000D01*
X38644513Y25309797D01*
X38634550Y25359886D01*
X38634549Y25359889D01*
X38402372Y25707365D01*
X38402371Y25707366D01*
X38402369Y25707369D01*
X38402365Y25707372D01*
X38402364Y25707373D01*
X38054891Y25939547D01*
X38054886Y25939550D01*
X37748470Y26000500D01*
X37748468Y26000500D01*
X37291532Y26000500D01*
X37291529Y26000500D01*
X36985113Y25939550D01*
X36985108Y25939547D01*
X36637635Y25707373D01*
X36637627Y25707365D01*
X36405450Y25359889D01*
X36405450Y25359887D01*
X36404515Y25355185D01*
X36401852Y25351200D01*
X36401718Y25350876D01*
X36401653Y25350903D01*
X36362418Y25292184D01*
X36307417Y25275500D01*
X30951084Y25275500D01*
X30881080Y25304496D01*
X30444449Y25741127D01*
X30415453Y25811131D01*
X30432140Y25866136D01*
X30434800Y25870115D01*
X30516331Y26280000D01*
X30434800Y26689885D01*
X30434800Y26689886D01*
X30434799Y26689889D01*
X30202622Y27037365D01*
X30202621Y27037366D01*
X30202619Y27037369D01*
X30202615Y27037372D01*
X30202614Y27037373D01*
X29855138Y27269550D01*
X29855135Y27269551D01*
X29445250Y27351081D01*
X29035364Y27269551D01*
X29035361Y27269550D01*
X28687885Y27037373D01*
X28687877Y27037365D01*
X28455700Y26689889D01*
X28455699Y26689886D01*
X28374169Y26280000D01*
X18747103Y26280000D01*
X18589496Y26437607D01*
X18560500Y26507611D01*
X18560500Y29779864D01*
X23830001Y29779864D01*
X23872790Y29564743D01*
X24035791Y29320794D01*
X24035793Y29320792D01*
X24279739Y29157793D01*
X24279741Y29157792D01*
X24494863Y29115001D01*
X24567499Y29115002D01*
X24567500Y29115002D01*
X25067500Y29115002D01*
X25067501Y29115001D01*
X25140133Y29115001D01*
X25140136Y29115002D01*
X25355257Y29157791D01*
X25599206Y29320792D01*
X25599208Y29320794D01*
X25762207Y29564740D01*
X25762207Y29564741D01*
X25785585Y29682265D01*
X25827682Y29745267D01*
X25901997Y29760049D01*
X25964999Y29717952D01*
X25979779Y29682272D01*
X25979911Y29681606D01*
X25979912Y29681603D01*
X25979913Y29681601D01*
X26076720Y29536720D01*
X26221601Y29439913D01*
X26349360Y29414500D01*
X26349361Y29414500D01*
X26935639Y29414500D01*
X26935640Y29414500D01*
X27063399Y29439913D01*
X27208280Y29536720D01*
X27305087Y29681601D01*
X27330500Y29809360D01*
X27330500Y30276666D01*
X27359496Y30346670D01*
X28018330Y31005504D01*
X28088334Y31034500D01*
X28357667Y31034500D01*
X28427671Y31005504D01*
X28454765Y30954815D01*
X28455700Y30950114D01*
X28455700Y30950112D01*
X28687877Y30602636D01*
X28687878Y30602635D01*
X28687881Y30602631D01*
X28687884Y30602629D01*
X28687885Y30602628D01*
X29035361Y30370451D01*
X29035364Y30370450D01*
X29088911Y30359799D01*
X29445250Y30288919D01*
X29855135Y30370450D01*
X30069067Y30513395D01*
X30143379Y30528177D01*
X30206381Y30486081D01*
X30221562Y30413888D01*
X30148584Y30000003D01*
X30148584Y29999998D01*
X30185585Y29790153D01*
X30169185Y29716178D01*
X30105280Y29675466D01*
X30033088Y29690646D01*
X29855134Y29809551D01*
X29855135Y29809551D01*
X29445250Y29891081D01*
X29035364Y29809551D01*
X29035361Y29809550D01*
X28687885Y29577373D01*
X28687877Y29577365D01*
X28455700Y29229889D01*
X28455699Y29229886D01*
X28374169Y28820000D01*
X28455699Y28410115D01*
X28455700Y28410112D01*
X28687877Y28062636D01*
X28687878Y28062635D01*
X28687881Y28062631D01*
X28687884Y28062629D01*
X28687885Y28062628D01*
X29035361Y27830451D01*
X29035364Y27830450D01*
X29083874Y27820801D01*
X29445250Y27748919D01*
X29855135Y27830450D01*
X29859113Y27833109D01*
X29863806Y27834043D01*
X29864146Y27834183D01*
X29864173Y27834116D01*
X29933425Y27847896D01*
X29984123Y27820801D01*
X31695380Y26109543D01*
X31716839Y26077428D01*
X31736123Y26030873D01*
X31791861Y26007786D01*
X31791864Y26007784D01*
X31800868Y26004055D01*
X31800869Y26004054D01*
X31829833Y25992057D01*
X31920503Y25954500D01*
X31920505Y25954500D01*
X31985250Y25927682D01*
X32031802Y25946965D01*
X32069686Y25954500D01*
X36265561Y25954500D01*
X36303446Y25946965D01*
X36350000Y25927681D01*
X36534380Y26004054D01*
X36534379Y26004054D01*
X36599127Y26030873D01*
X36618410Y26077430D01*
X36639870Y26109545D01*
X36900831Y26370505D01*
X36970834Y26399501D01*
X38289368Y26399501D01*
X38289370Y26399501D01*
X38420776Y26425638D01*
X38569793Y26525207D01*
X38669362Y26674224D01*
X38695500Y26805629D01*
X38695499Y28094370D01*
X38669362Y28225776D01*
X38569793Y28374793D01*
X38420776Y28474362D01*
X38420775Y28474363D01*
X38420776Y28474363D01*
X38289371Y28500500D01*
X36750632Y28500500D01*
X36750625Y28500499D01*
X36620044Y28474526D01*
X36545728Y28489309D01*
X36503633Y28552311D01*
X36514994Y28621123D01*
X36649301Y28853748D01*
X36851416Y30000000D01*
X36649301Y31146252D01*
X36067334Y32154249D01*
X35960223Y32244126D01*
X35175711Y32902409D01*
X35175709Y32902410D01*
X35175708Y32902411D01*
X34081967Y33300500D01*
X32918033Y33300500D01*
X31824292Y32902411D01*
X31824291Y32902411D01*
X31824290Y32902410D01*
X31824288Y32902409D01*
X30932665Y32154249D01*
X30932664Y32154249D01*
X30637029Y31642193D01*
X30576916Y31596066D01*
X30501793Y31605957D01*
X30455666Y31666070D01*
X30454195Y31672379D01*
X30434800Y31769885D01*
X30215744Y32097727D01*
X30200962Y32172042D01*
X30228054Y32222730D01*
X32820830Y34815504D01*
X32890834Y34844500D01*
X36349166Y34844500D01*
X36419170Y34815504D01*
X39345504Y31889170D01*
X39374500Y31819166D01*
X39374500Y22305836D01*
X39345504Y22235832D01*
X38087579Y20977908D01*
X38017575Y20948912D01*
X37998261Y20950814D01*
X37748471Y21000500D01*
X37748468Y21000500D01*
X37291532Y21000500D01*
X37291529Y21000500D01*
X36985113Y20939550D01*
X36985108Y20939547D01*
X36637635Y20707373D01*
X36637627Y20707365D01*
X36405450Y20359889D01*
X36405449Y20359886D01*
X36323919Y19950000D01*
X36405449Y19540115D01*
X36405450Y19540112D01*
X36637627Y19192636D01*
X36637628Y19192635D01*
X36637631Y19192631D01*
X36637634Y19192629D01*
X36637635Y19192628D01*
X36985108Y18960454D01*
X36985113Y18960451D01*
X36985115Y18960450D01*
X37291532Y18899500D01*
X37291533Y18899500D01*
X37748467Y18899500D01*
X37748468Y18899500D01*
X38054885Y18960450D01*
X38402369Y19192631D01*
X38490397Y19324374D01*
X38634549Y19540112D01*
X38634550Y19540115D01*
X38654378Y19639799D01*
X38716081Y19950000D01*
X38634550Y20359885D01*
X38581820Y20438801D01*
X38567037Y20513117D01*
X38594129Y20563805D01*
X39870459Y21840134D01*
X39902572Y21861590D01*
X39949127Y21880873D01*
X39972528Y21937369D01*
X39975945Y21945620D01*
X39975947Y21945620D01*
X40052319Y22130000D01*
X40052319Y22130001D01*
X40033036Y22176555D01*
X40025500Y22214440D01*
X40025500Y31910562D01*
X40033035Y31948446D01*
X40052319Y31995000D01*
X39975946Y32179380D01*
X39949127Y32244127D01*
X39949122Y32244129D01*
X39902572Y32263411D01*
X39870455Y32284871D01*
X36814869Y35340457D01*
X36793409Y35372576D01*
X36785870Y35390776D01*
X36774127Y35419127D01*
X36725845Y35439126D01*
X36589747Y35495500D01*
X36525000Y35522319D01*
X36508538Y35515500D01*
X36478447Y35503036D01*
X36440561Y35495500D01*
X32799439Y35495500D01*
X32761553Y35503036D01*
X32731462Y35515500D01*
X32715000Y35522319D01*
X32650253Y35495500D01*
X32465871Y35419127D01*
X32465871Y35419126D01*
X32446588Y35372574D01*
X32425129Y35340457D01*
X30630812Y33546140D01*
X30560808Y33517144D01*
X30490804Y33546140D01*
X30461808Y33616144D01*
X30463710Y33635458D01*
X30516331Y33900000D01*
X30434800Y34309885D01*
X30432139Y34313868D01*
X30431204Y34318565D01*
X30431067Y34318897D01*
X30431133Y34318925D01*
X30417355Y34388183D01*
X30444447Y34438873D01*
X32091081Y36085504D01*
X32161085Y36114500D01*
X36984166Y36114500D01*
X37054170Y36085504D01*
X40615504Y32524170D01*
X40644500Y32454166D01*
X40644500Y21075835D01*
X40615504Y21005831D01*
X38087580Y18477908D01*
X38017576Y18448912D01*
X37998262Y18450814D01*
X37748470Y18500500D01*
X37748468Y18500500D01*
X37291532Y18500500D01*
X37291529Y18500500D01*
X36985113Y18439550D01*
X36985108Y18439547D01*
X36637635Y18207373D01*
X36637627Y18207365D01*
X36405450Y17859889D01*
X36405449Y17859886D01*
X36323919Y17450000D01*
X36405449Y17040115D01*
X36405450Y17040112D01*
X36637627Y16692636D01*
X36637628Y16692635D01*
X36637631Y16692631D01*
X36637634Y16692629D01*
X36637635Y16692628D01*
X36985108Y16460454D01*
X36985110Y16460453D01*
X36985115Y16460450D01*
X37038754Y16449781D01*
X37101753Y16407686D01*
X37116536Y16333370D01*
X37074440Y16270369D01*
X37038752Y16255586D01*
X36868255Y16221672D01*
X36868249Y16221669D01*
X36421708Y15923300D01*
X36421700Y15923292D01*
X36123331Y15476751D01*
X36123328Y15476746D01*
X36068279Y15200000D01*
X37109417Y15200000D01*
X37005864Y14950000D01*
X37109417Y14700000D01*
X36068280Y14700000D01*
X36123328Y14423255D01*
X36123331Y14423250D01*
X36218662Y14280577D01*
X36224148Y14252994D01*
X36248984Y14235197D01*
X36421702Y13976707D01*
X36421708Y13976701D01*
X36868249Y13678332D01*
X36868254Y13678329D01*
X37262034Y13600001D01*
X37262038Y13600000D01*
X37269999Y13600000D01*
X37270000Y13600001D01*
X37270000Y14539418D01*
X37425517Y14475000D01*
X37614483Y14475000D01*
X37770000Y14539418D01*
X37770000Y13600001D01*
X37770001Y13600000D01*
X37777962Y13600000D01*
X37777965Y13600001D01*
X38171745Y13678329D01*
X38171750Y13678332D01*
X38618291Y13976701D01*
X38618299Y13976709D01*
X38916668Y14423250D01*
X38916671Y14423255D01*
X38971720Y14700000D01*
X37930583Y14700000D01*
X38034136Y14950000D01*
X37930583Y15200000D01*
X38971720Y15200000D01*
X38916671Y15476746D01*
X38916668Y15476751D01*
X38618299Y15923292D01*
X38618291Y15923300D01*
X38171750Y16221669D01*
X38171744Y16221672D01*
X38001247Y16255586D01*
X37938245Y16297683D01*
X37923463Y16371998D01*
X37965560Y16435000D01*
X38001243Y16449780D01*
X38054885Y16460450D01*
X38402369Y16692631D01*
X38491763Y16826419D01*
X38634549Y17040112D01*
X38634550Y17040115D01*
X38648624Y17110870D01*
X38716081Y17450000D01*
X38634550Y17859885D01*
X38581820Y17938801D01*
X38567037Y18013117D01*
X38594129Y18063805D01*
X41140458Y20610134D01*
X41172570Y20631590D01*
X41219127Y20650873D01*
X41295500Y20835253D01*
X41295500Y20835254D01*
X41322319Y20900000D01*
X41322319Y20900001D01*
X41303036Y20946555D01*
X41295500Y20984440D01*
X41295500Y32545562D01*
X41303035Y32583446D01*
X41322319Y32630000D01*
X41322319Y32630001D01*
X41242219Y32823382D01*
X41242211Y32823396D01*
X41219127Y32879127D01*
X41172573Y32898411D01*
X41140457Y32919870D01*
X37449869Y36610457D01*
X37428409Y36642576D01*
X37428136Y36643235D01*
X37409127Y36689127D01*
X37407019Y36690000D01*
X37224747Y36765500D01*
X37160000Y36792319D01*
X37113447Y36773036D01*
X37075561Y36765500D01*
X32069686Y36765500D01*
X32031802Y36773036D01*
X31985250Y36792318D01*
X31985249Y36792318D01*
X31926901Y36768150D01*
X31926887Y36768146D01*
X31857039Y36739213D01*
X31829833Y36727944D01*
X31824746Y36725837D01*
X31809879Y36719680D01*
X31809876Y36719678D01*
X31800869Y36715946D01*
X31800868Y36715946D01*
X31782833Y36708476D01*
X31736124Y36689128D01*
X31736121Y36689125D01*
X31716839Y36642575D01*
X31695380Y36610459D01*
X29984123Y34899201D01*
X29914119Y34870205D01*
X29859119Y34886889D01*
X29855137Y34889550D01*
X29855135Y34889551D01*
X29445250Y34971081D01*
X29035364Y34889551D01*
X29035361Y34889550D01*
X28687885Y34657373D01*
X28687877Y34657365D01*
X28455700Y34309889D01*
X28455700Y34309887D01*
X28454765Y34305185D01*
X28452102Y34301200D01*
X28451968Y34300876D01*
X28451903Y34300903D01*
X28412668Y34242184D01*
X28357667Y34225500D01*
X27402824Y34225500D01*
X27332820Y34254496D01*
X27308820Y34299395D01*
X27308817Y34299393D01*
X27308801Y34299430D01*
X27305727Y34305182D01*
X27305087Y34308399D01*
X27305085Y34308402D01*
X27250897Y34389500D01*
X27208280Y34453280D01*
X27063399Y34550087D01*
X26935640Y34575500D01*
X26349360Y34575500D01*
X26349359Y34575500D01*
X26317635Y34569190D01*
X26221601Y34550087D01*
X26221599Y34550087D01*
X26221599Y34550086D01*
X26221597Y34550085D01*
X26076722Y34453282D01*
X26076718Y34453278D01*
X25979915Y34308403D01*
X25979911Y34308395D01*
X25979779Y34307728D01*
X25979401Y34307164D01*
X25976184Y34299394D01*
X25974637Y34300035D01*
X25937679Y34244730D01*
X25863362Y34229953D01*
X25800364Y34272053D01*
X25785585Y34307736D01*
X25762209Y34425258D01*
X25599208Y34669207D01*
X25599206Y34669209D01*
X25355260Y34832208D01*
X25355258Y34832209D01*
X25140137Y34875000D01*
X25067501Y34875000D01*
X25067500Y34874999D01*
X25067500Y32925002D01*
X25067501Y32925001D01*
X25140133Y32925001D01*
X25140136Y32925002D01*
X25355257Y32967791D01*
X25599206Y33130792D01*
X25599208Y33130794D01*
X25762207Y33374740D01*
X25762207Y33374741D01*
X25785585Y33492265D01*
X25827682Y33555267D01*
X25901997Y33570049D01*
X25964999Y33527952D01*
X25979779Y33492272D01*
X25979911Y33491606D01*
X25979912Y33491603D01*
X25979913Y33491601D01*
X26076720Y33346720D01*
X26221601Y33249913D01*
X26349360Y33224500D01*
X26349361Y33224500D01*
X26935639Y33224500D01*
X26935640Y33224500D01*
X27063399Y33249913D01*
X27208280Y33346720D01*
X27305087Y33491601D01*
X27305727Y33494818D01*
X27307547Y33497543D01*
X27308817Y33500607D01*
X27309426Y33500355D01*
X27347826Y33557818D01*
X27402824Y33574500D01*
X28357667Y33574500D01*
X28427671Y33545504D01*
X28454765Y33494815D01*
X28455700Y33490114D01*
X28455700Y33490112D01*
X28687877Y33142636D01*
X28687878Y33142635D01*
X28687881Y33142631D01*
X28687884Y33142629D01*
X28687885Y33142628D01*
X29035361Y32910451D01*
X29035364Y32910450D01*
X29095894Y32898410D01*
X29445250Y32828919D01*
X29709793Y32881540D01*
X29784107Y32866758D01*
X29826204Y32803756D01*
X29811422Y32729441D01*
X29799110Y32714438D01*
X29541474Y32456802D01*
X29471470Y32427806D01*
X29452162Y32429707D01*
X29445252Y32431081D01*
X29445251Y32431081D01*
X29445250Y32431081D01*
X29386923Y32419480D01*
X29035364Y32349551D01*
X29035361Y32349550D01*
X28687885Y32117373D01*
X28687877Y32117365D01*
X28455700Y31769889D01*
X28455700Y31769887D01*
X28454765Y31765185D01*
X28452102Y31761200D01*
X28451968Y31760876D01*
X28451903Y31760903D01*
X28412668Y31702184D01*
X28357667Y31685500D01*
X27996939Y31685500D01*
X27959053Y31693036D01*
X27912500Y31712319D01*
X27847753Y31685500D01*
X27663371Y31609127D01*
X27663371Y31609126D01*
X27644088Y31562574D01*
X27622629Y31530458D01*
X26886670Y30794497D01*
X26816666Y30765500D01*
X26349359Y30765500D01*
X26317635Y30759190D01*
X26221601Y30740087D01*
X26221599Y30740087D01*
X26221599Y30740086D01*
X26221597Y30740085D01*
X26076722Y30643282D01*
X26076718Y30643278D01*
X25979915Y30498403D01*
X25979911Y30498395D01*
X25979779Y30497728D01*
X25979401Y30497164D01*
X25976184Y30489394D01*
X25974637Y30490035D01*
X25937679Y30434730D01*
X25863362Y30419953D01*
X25800364Y30462053D01*
X25785585Y30497736D01*
X25762209Y30615258D01*
X25599208Y30859207D01*
X25599206Y30859209D01*
X25355260Y31022208D01*
X25355258Y31022209D01*
X25140137Y31065000D01*
X25067501Y31065000D01*
X25067500Y31064999D01*
X25067500Y29115002D01*
X24567500Y29115002D01*
X24567500Y29839999D01*
X24567499Y29840000D01*
X23830002Y29840000D01*
X23830001Y29839999D01*
X23830001Y29779864D01*
X18560500Y29779864D01*
X18560500Y30340001D01*
X23830000Y30340001D01*
X23830001Y30340000D01*
X24567499Y30340000D01*
X24567500Y30340001D01*
X24567500Y31065001D01*
X24494867Y31065000D01*
X24494862Y31064999D01*
X24279742Y31022210D01*
X24035793Y30859209D01*
X24035791Y30859207D01*
X23872792Y30615261D01*
X23872791Y30615259D01*
X23830000Y30400138D01*
X23830000Y30340001D01*
X18560500Y30340001D01*
X18560500Y33589864D01*
X23830001Y33589864D01*
X23872790Y33374743D01*
X24035791Y33130794D01*
X24035793Y33130792D01*
X24279739Y32967793D01*
X24279741Y32967792D01*
X24494863Y32925001D01*
X24567499Y32925002D01*
X24567500Y32925002D01*
X24567500Y33649999D01*
X24567499Y33650000D01*
X23830002Y33650000D01*
X23830001Y33649999D01*
X23830001Y33589864D01*
X18560500Y33589864D01*
X18560500Y33790698D01*
X18568036Y33828584D01*
X18597618Y33900000D01*
X18494064Y34150001D01*
X23830000Y34150001D01*
X23830001Y34150000D01*
X24567499Y34150000D01*
X24567500Y34150001D01*
X24567500Y34875001D01*
X24494867Y34875000D01*
X24494862Y34874999D01*
X24279742Y34832210D01*
X24035793Y34669209D01*
X24035791Y34669207D01*
X23872792Y34425261D01*
X23872791Y34425259D01*
X23830000Y34210138D01*
X23830000Y34150001D01*
X18494064Y34150001D01*
X18491916Y34155187D01*
X18469179Y34210078D01*
X18454798Y34244798D01*
X18454796Y34244799D01*
X18383380Y34274381D01*
X18351262Y34295841D01*
X17565839Y35081264D01*
X17544379Y35113383D01*
X17521618Y35168332D01*
X17514798Y35184798D01*
X17259611Y35290500D01*
X17170000Y35327618D01*
X17132020Y35311886D01*
X17098583Y35298036D01*
X17060697Y35290500D01*
X16370555Y35290500D01*
X16300551Y35319496D01*
X16273456Y35370191D01*
X16272476Y35375119D01*
X16287262Y35449433D01*
X16314575Y35476745D01*
X16385718Y35524280D01*
X16385720Y35524282D01*
X16551482Y35772363D01*
X16551483Y35772365D01*
X16594999Y35991132D01*
X16595000Y35991136D01*
X16595000Y36189999D01*
X16594999Y36190000D01*
X15419000Y36190000D01*
X15348996Y36218996D01*
X15320000Y36289000D01*
X15320000Y36440000D01*
X28374169Y36440000D01*
X28455699Y36030115D01*
X28455700Y36030112D01*
X28687877Y35682636D01*
X28687878Y35682635D01*
X28687881Y35682631D01*
X28687884Y35682629D01*
X28687885Y35682628D01*
X29035361Y35450451D01*
X29035364Y35450450D01*
X29092290Y35439127D01*
X29445250Y35368919D01*
X29855135Y35450450D01*
X29855138Y35450451D01*
X30176979Y35665499D01*
X30202619Y35682631D01*
X30273757Y35789097D01*
X30434799Y36030112D01*
X30434800Y36030115D01*
X30440211Y36057317D01*
X30516331Y36440000D01*
X30434800Y36849885D01*
X30434800Y36849886D01*
X30434799Y36849889D01*
X30202622Y37197365D01*
X30202621Y37197366D01*
X30202619Y37197369D01*
X30202615Y37197372D01*
X30202614Y37197373D01*
X29855138Y37429550D01*
X29855135Y37429551D01*
X29445250Y37511081D01*
X29035364Y37429551D01*
X29035361Y37429550D01*
X28687885Y37197373D01*
X28687877Y37197365D01*
X28455700Y36849889D01*
X28455699Y36849886D01*
X28374169Y36440000D01*
X15320000Y36440000D01*
X15320000Y36690001D01*
X15820000Y36690001D01*
X15820001Y36690000D01*
X16594999Y36690000D01*
X16595000Y36690001D01*
X16595000Y36888865D01*
X16594999Y36888869D01*
X16551483Y37107636D01*
X16551482Y37107638D01*
X16385720Y37355719D01*
X16385718Y37355721D01*
X16137637Y37521483D01*
X16137635Y37521484D01*
X15918868Y37565000D01*
X15820001Y37565000D01*
X15820000Y37564999D01*
X15820000Y36690001D01*
X15320000Y36690001D01*
X15320000Y37564999D01*
X15319999Y37565000D01*
X15221131Y37565000D01*
X15002364Y37521484D01*
X15002362Y37521483D01*
X14754281Y37355721D01*
X14754278Y37355718D01*
X14605463Y37133001D01*
X14542462Y37090905D01*
X14468146Y37105688D01*
X14440832Y37133002D01*
X14395159Y37201357D01*
X13766486Y36572685D01*
X13662933Y36822683D01*
X13412931Y36926238D01*
X14041605Y37554911D01*
X13806996Y37711671D01*
X13806994Y37711672D01*
X13535952Y37765586D01*
X13472950Y37807683D01*
X13458168Y37881998D01*
X13500265Y37945000D01*
X13535950Y37959781D01*
X13690135Y37990450D01*
X13690135Y37990451D01*
X13690138Y37990451D01*
X13980549Y38184498D01*
X14037619Y38222631D01*
X14096448Y38310676D01*
X14269799Y38570112D01*
X14269800Y38570115D01*
X14291568Y38679550D01*
X14351331Y38980000D01*
X28374169Y38980000D01*
X28455699Y38570115D01*
X28455700Y38570112D01*
X28687877Y38222636D01*
X28687878Y38222635D01*
X28687881Y38222631D01*
X28687884Y38222629D01*
X28687885Y38222628D01*
X29035361Y37990451D01*
X29035364Y37990450D01*
X29103368Y37976924D01*
X29445250Y37908919D01*
X29855135Y37990450D01*
X29855138Y37990451D01*
X30145549Y38184498D01*
X30202619Y38222631D01*
X30261448Y38310676D01*
X30434799Y38570112D01*
X30434800Y38570115D01*
X30456568Y38679550D01*
X30516331Y38980000D01*
X30434800Y39389885D01*
X30434800Y39389886D01*
X30434799Y39389889D01*
X30202622Y39737365D01*
X30202621Y39737366D01*
X30202619Y39737369D01*
X30202615Y39737372D01*
X30202614Y39737373D01*
X29855138Y39969550D01*
X29855135Y39969551D01*
X29445250Y40051081D01*
X29035364Y39969551D01*
X29035361Y39969550D01*
X28687885Y39737373D01*
X28687877Y39737365D01*
X28455700Y39389889D01*
X28455699Y39389886D01*
X28374169Y38980000D01*
X14351331Y38980000D01*
X14269800Y39389885D01*
X14269800Y39389886D01*
X14269799Y39389889D01*
X14037622Y39737365D01*
X14037621Y39737366D01*
X14037619Y39737369D01*
X14037615Y39737372D01*
X14037614Y39737373D01*
X13690138Y39969550D01*
X13690135Y39969551D01*
X13280250Y40051081D01*
X12870364Y39969551D01*
X12870361Y39969550D01*
X12522885Y39737373D01*
X12522877Y39737365D01*
X12290700Y39389889D01*
X12290699Y39389886D01*
X12209169Y38980000D01*
X12290699Y38570115D01*
X12290700Y38570112D01*
X12522877Y38222636D01*
X12522878Y38222635D01*
X12522881Y38222631D01*
X12522884Y38222629D01*
X12522885Y38222628D01*
X12870361Y37990451D01*
X12870364Y37990450D01*
X12918812Y37980814D01*
X13024546Y37959782D01*
X13087547Y37917686D01*
X13102330Y37843370D01*
X13060234Y37780369D01*
X13024546Y37765586D01*
X12753506Y37711673D01*
X12518893Y37554911D01*
X13147567Y36926237D01*
X12897567Y36822683D01*
X12794013Y36572684D01*
X12165339Y37201357D01*
X12008577Y36966744D01*
X11903802Y36440001D01*
X12008579Y35913255D01*
X12008579Y35913254D01*
X12164447Y35679981D01*
X12179229Y35605666D01*
X12137132Y35542664D01*
X12062817Y35527882D01*
X12012127Y35554976D01*
X10084655Y37482448D01*
X10055659Y37552452D01*
X10057559Y37571755D01*
X10081081Y37690000D01*
X9999550Y38099885D01*
X9999550Y38099886D01*
X9999549Y38099889D01*
X9767372Y38447365D01*
X9767370Y38447367D01*
X9767369Y38447369D01*
X9767365Y38447372D01*
X9767364Y38447373D01*
X9419891Y38679547D01*
X9419886Y38679550D01*
X9113470Y38740500D01*
X9113468Y38740500D01*
X8606532Y38740500D01*
X8606529Y38740500D01*
X8300113Y38679550D01*
X8300108Y38679547D01*
X7952635Y38447373D01*
X7952629Y38447367D01*
X7776986Y38184498D01*
X7713985Y38142402D01*
X7694671Y38140500D01*
X7404303Y38140500D01*
X7366417Y38148036D01*
X7295000Y38177618D01*
X7205389Y38140500D01*
X6950201Y38034798D01*
X6920619Y37963381D01*
X6899159Y37931264D01*
X2628736Y33660841D01*
X2596619Y33639381D01*
X2525202Y33609799D01*
X2498834Y33546140D01*
X2488084Y33520187D01*
X2382382Y33265000D01*
X2399157Y33224501D01*
X2411964Y33193584D01*
X2419500Y33155698D01*
X2419500Y8609304D01*
X2411964Y8571419D01*
X2393492Y8526822D01*
X2382382Y8500000D01*
X300500Y8500000D01*
X300500Y39990248D01*
X302402Y40009562D01*
X312390Y40059774D01*
X426025Y40631059D01*
X440805Y40666742D01*
X787331Y41185355D01*
X814646Y41212669D01*
X1047927Y41368542D01*
X1333258Y41559195D01*
X1368941Y41573975D01*
X1990438Y41697599D01*
X2009752Y41699500D01*
X2097638Y41699500D01*
X37902362Y41699500D01*
X37997214Y41699500D01*
X38002760Y41699189D01*
G37*
%TD.AperFunction*%
%TD*%
M02*
