M48
; DRILL file {KiCad 7.0.8} date Thu Nov 30 10:47:30 2023
; FORMAT={-:-/ absolute / metric / decimal}
; #@! TF.CreationDate,2023-11-30T10:47:30+09:00
; #@! TF.GenerationSoftware,Kicad,Pcbnew,7.0.8
; #@! TF.FileFunction,MixedPlating,1,2
FMAT,2
METRIC
; #@! TA.AperFunction,Plated,PTH,ComponentDrill
T1C0.800
; #@! TA.AperFunction,Plated,PTH,ComponentDrill
T2C0.950
; #@! TA.AperFunction,Plated,PTH,ComponentDrill
T3C1.000
; #@! TA.AperFunction,NonPlated,NPTH,ComponentDrill
T4C3.200
%
G90
G05
T1
X13.07Y4.69
X15.57Y4.69
X20.65Y5.96
X20.65Y4.69
X20.65Y3.42
T2
X37.52Y27.45
X37.52Y24.95
X37.52Y22.45
X37.52Y19.95
X37.52Y17.45
X37.52Y14.95
T3
X8.86Y37.69
X8.86Y35.19
X8.86Y21.18
X8.86Y18.68
X13.28Y38.98
X13.28Y36.44
X13.28Y33.9
X13.28Y31.36
X13.28Y28.82
X13.28Y26.28
X13.28Y23.74
X27.0Y9.77
X29.445Y38.98
X29.445Y36.44
X29.445Y33.9
X29.445Y31.36
X29.445Y28.82
X29.445Y26.28
X29.445Y23.74
X29.5Y9.77
X38.45Y9.77
X40.95Y9.77
T4
X9.5Y30.0
X9.5Y12.0
X33.5Y30.0
X33.5Y12.0
T0
M30
