M48
; DRILL file {KiCad 7.0.8} date Wed Dec  6 18:05:09 2023
; FORMAT={-:-/ absolute / metric / decimal}
; #@! TF.CreationDate,2023-12-06T18:05:09+09:00
; #@! TF.GenerationSoftware,Kicad,Pcbnew,7.0.8
; #@! TF.FileFunction,MixedPlating,1,2
FMAT,2
METRIC
; #@! TA.AperFunction,Plated,PTH,ComponentDrill
T1C0.900
; #@! TA.AperFunction,Plated,PTH,ComponentDrill
T2C0.950
; #@! TA.AperFunction,Plated,PTH,ComponentDrill
T3C1.000
; #@! TA.AperFunction,Plated,PTH,ComponentDrill
T4C1.100
; #@! TA.AperFunction,Plated,PTH,ComponentDrill
T5C1.200
; #@! TA.AperFunction,NonPlated,NPTH,ComponentDrill
T6C3.200
%
G90
G05
T1
X21.412Y5.96
X21.412Y4.69
X21.412Y3.42
T2
X15.697Y6.047
X15.697Y3.547
T3
X27.0Y9.77
X29.5Y9.77
T4
X8.86Y37.69
X8.86Y35.19
X8.86Y21.18
X8.86Y18.68
X37.52Y27.45
X37.52Y24.95
X37.52Y22.45
X37.52Y19.95
X37.52Y17.45
X37.52Y14.95
X38.45Y9.77
X40.95Y9.77
T5
X13.76Y38.98
X13.76Y36.44
X13.76Y33.9
X13.76Y31.36
X13.76Y28.82
X13.76Y26.28
X13.76Y23.74
X29.0Y38.98
X29.0Y36.44
X29.0Y33.9
X29.0Y31.36
X29.0Y28.82
X29.0Y26.28
X29.0Y23.74
T6
X9.5Y30.0
X9.5Y12.0
X33.5Y30.0
X33.5Y12.0
T0
M30
